<?xml version="1.0" encoding="UTF-8"?>
<svg height="139.30mm" viewBox="0.0 0.0 166.60 139.30" width="166.60mm" xmlns="http://www.w3.org/2000/svg" xmlns:cc="http://creativecommons.org/ns#" xmlns:dc="http://purl.org/dc/elements/1.1/" xmlns:inkscape="http://www.inkscape.org/namespaces/inkscape" xmlns:rdf="http://www.w3.org/1999/02/22-rdf-syntax-ns#" xmlns:svg="http://www.w3.org/2000/svg" xmlns:xlink="http://www.w3.org/1999/xlink">
<!--
ClosedBox - Fully closed box


This box is more of a building block than a finished item.
Use a vector graphics program (like Inkscape) to add holes or adjust the base
plate.

See BasedBox for variant with a base.


Created with Boxes.py (https://festi.info/boxes.py)
Creation date: 2024-01-23 07:42:28
Command line (remove spaces between dashes): boxes ClosedBox - -x=62 - -y=26 - -h=30 - -outside=0
Url: http://www.festi.info/boxes.py/ClosedBox?FingerJoint_angle=90.0&FingerJoint_style=rectangular&FingerJoint_surroundingspaces=2.0&FingerJoint_bottom_lip=0.0&FingerJoint_edge_width=1.0&FingerJoint_extra_length=0.0&FingerJoint_finger=2.0&FingerJoint_play=0.0&FingerJoint_space=2.0&FingerJoint_width=1.0&x=62&y=26&h=30&outside=0&thickness=3.0&format=svg&tabs=0.0&qr_code=0&debug=0&labels=0&labels=1&reference=100&inner_corners=loop&burn=0.1&language=en&render=1
Url short: http://www.festi.info/boxes.py/ClosedBox?x=62&y=26&h=30&outside=0
SettingsUrl: http://www.festi.info/boxes.py/ClosedBox?FingerJoint_angle=90.0&FingerJoint_style=rectangular&FingerJoint_surroundingspaces=2.0&FingerJoint_bottom_lip=0.0&FingerJoint_edge_width=1.0&FingerJoint_extra_length=0.0&FingerJoint_finger=2.0&FingerJoint_play=0.0&FingerJoint_space=2.0&FingerJoint_width=1.0&x=62&y=26&h=30&outside=0&thickness=3.0&format=svg&tabs=0.0&qr_code=0&debug=0&labels=0&labels=1&reference=100&inner_corners=loop&burn=0.1&language=en
SettingsUrl short: http://www.festi.info/boxes.py/ClosedBox?x=62&y=26&h=30&outside=0
-->
<title>ClosedBox</title>
<metadata>
<rdf:RDF><cc:Work>
<dc:title>Box - ClosedBox</dc:title>
<dc:date>2024-01-23 07:42:28</dc:date>
<dc:source>http://www.festi.info/boxes.py/ClosedBox?FingerJoint_angle=90.0&amp;FingerJoint_style=rectangular&amp;FingerJoint_surroundingspaces=2.0&amp;FingerJoint_bottom_lip=0.0&amp;FingerJoint_edge_width=1.0&amp;FingerJoint_extra_length=0.0&amp;FingerJoint_finger=2.0&amp;FingerJoint_play=0.0&amp;FingerJoint_space=2.0&amp;FingerJoint_width=1.0&amp;x=62&amp;y=26&amp;h=30&amp;outside=0&amp;thickness=3.0&amp;format=svg&amp;tabs=0.0&amp;qr_code=0&amp;debug=0&amp;labels=0&amp;labels=1&amp;reference=100&amp;inner_corners=loop&amp;burn=0.1&amp;language=en&amp;render=1</dc:source>
<dc:source>http://www.festi.info/boxes.py/ClosedBox?x=62&amp;y=26&amp;h=30&amp;outside=0</dc:source>
<dc:description>Fully closed box

This box is more of a building block than a finished item.
Use a vector graphics program (like Inkscape) to add holes or adjust the base
plate.

See BasedBox for variant with a base.

Created with Boxes.py (https://festi.info/boxes.py)
Command line: boxes ClosedBox --FingerJoint_angle=90.0 --FingerJoint_style=rectangular --FingerJoint_surroundingspaces=2.0 --FingerJoint_bottom_lip=0.0 --FingerJoint_edge_width=1.0 --FingerJoint_extra_length=0.0 --FingerJoint_finger=2.0 --FingerJoint_play=0.0 --FingerJoint_space=2.0 --FingerJoint_width=1.0 --x=62 --y=26 --h=30 --outside=0 --thickness=3.0 --format=svg --tabs=0.0 --qr_code=0 --debug=0 --labels=0 --labels=1 --reference=100 --inner_corners=loop --burn=0.1
Command line short: boxes ClosedBox --x=62 --y=26 --h=30 --outside=0
Url: http://www.festi.info/boxes.py/ClosedBox?FingerJoint_angle=90.0&amp;FingerJoint_style=rectangular&amp;FingerJoint_surroundingspaces=2.0&amp;FingerJoint_bottom_lip=0.0&amp;FingerJoint_edge_width=1.0&amp;FingerJoint_extra_length=0.0&amp;FingerJoint_finger=2.0&amp;FingerJoint_play=0.0&amp;FingerJoint_space=2.0&amp;FingerJoint_width=1.0&amp;x=62&amp;y=26&amp;h=30&amp;outside=0&amp;thickness=3.0&amp;format=svg&amp;tabs=0.0&amp;qr_code=0&amp;debug=0&amp;labels=0&amp;labels=1&amp;reference=100&amp;inner_corners=loop&amp;burn=0.1&amp;language=en&amp;render=1
Url short: http://www.festi.info/boxes.py/ClosedBox?x=62&amp;y=26&amp;h=30&amp;outside=0
SettingsUrl: http://www.festi.info/boxes.py/ClosedBox?FingerJoint_angle=90.0&amp;FingerJoint_style=rectangular&amp;FingerJoint_surroundingspaces=2.0&amp;FingerJoint_bottom_lip=0.0&amp;FingerJoint_edge_width=1.0&amp;FingerJoint_extra_length=0.0&amp;FingerJoint_finger=2.0&amp;FingerJoint_play=0.0&amp;FingerJoint_space=2.0&amp;FingerJoint_width=1.0&amp;x=62&amp;y=26&amp;h=30&amp;outside=0&amp;thickness=3.0&amp;format=svg&amp;tabs=0.0&amp;qr_code=0&amp;debug=0&amp;labels=0&amp;labels=1&amp;reference=100&amp;inner_corners=loop&amp;burn=0.1&amp;language=en
SettingsUrl short: http://www.festi.info/boxes.py/ClosedBox?x=62&amp;y=26&amp;h=30&amp;outside=0
</dc:description>
</cc:Work></rdf:RDF></metadata>
<g id="p-0" style="fill:none;stroke-linecap:round;stroke-linejoin:round;">
  <path d="M 18.800 129.300 H 118.800 V 119.300 H 18.800 V 129.300 Z" stroke="rgb(0,0,0)" stroke-width="0.20"/>
  <text dominant-baseline="hanging" font-size="8px" style="font-family: sans-serif ; font-weight: normal; font-style: normal; fill: rgb(255,0,0)" text-anchor="middle" transform="matrix( 1.000 0.000 0.000 1.000 68.800 120.300 )">100.00mm, burn:0.10mm</text>
</g>
<g id="p-1" style="fill:none;stroke-linecap:round;stroke-linejoin:round;">
  <text dominant-baseline="hanging" font-size="4px" style="font-family: sans-serif ; font-weight: normal; font-style: normal; fill: rgb(255,0,0)" text-anchor="middle" transform="matrix( 1.000 0.000 0.000 1.000 52.800 97.600 )">Wall 1</text><path d="M 21.800 117.600 H 31.800 C 31.855 117.600 31.900 117.555 31.900 117.500 V 114.600 C 31.900 114.500 31.800 114.600 31.900 114.600 H 37.700 C 37.800 114.600 37.700 114.500 37.700 114.600 V 117.500 C 37.700 117.555 37.745 117.600 37.800 117.600 H 43.800 C 43.855 117.600 43.900 117.555 43.900 117.500 V 114.600 C 43.900 114.500 43.800 114.600 43.900 114.600 H 49.700 C 49.800 114.600 49.700 114.500 49.700 114.600 V 117.500 C 49.700 117.555 49.745 117.600 49.800 117.600 H 55.800 C 55.855 117.600 55.900 117.555 55.900 117.500 V 114.600 C 55.900 114.500 55.800 114.600 55.900 114.600 H 61.700 C 61.800 114.600 61.700 114.500 61.700 114.600 V 117.500 C 61.700 117.555 61.745 117.600 61.800 117.600 H 67.800 C 67.855 117.600 67.900 117.555 67.900 117.500 V 114.600 C 67.900 114.500 67.800 114.600 67.900 114.600 H 73.700 C 73.800 114.600 73.700 114.500 73.700 114.600 V 117.500 C 73.700 117.555 73.745 117.600 73.800 117.600 H 83.800 H 86.800 C 86.855 117.600 86.900 117.555 86.900 117.500 V 114.500 V 108.500 C 86.900 108.445 86.855 108.400 86.800 108.400 H 83.900 C 83.800 108.400 83.900 108.500 83.900 108.400 V 102.600 C 83.900 102.500 83.800 102.600 83.900 102.600 H 86.800 C 86.855 102.600 86.900 102.555 86.900 102.500 V 96.500 C 86.900 96.445 86.855 96.400 86.800 96.400 H 83.900 C 83.800 96.400 83.900 96.500 83.900 96.400 V 90.600 C 83.900 90.500 83.800 90.600 83.900 90.600 H 86.800 C 86.855 90.600 86.900 90.555 86.900 90.500 V 84.500 V 81.500 C 86.900 81.445 86.855 81.400 86.800 81.400 H 83.800 H 73.800 C 73.745 81.400 73.700 81.445 73.700 81.500 V 84.400 C 73.700 84.500 73.800 84.400 73.700 84.400 H 67.900 C 67.800 84.400 67.900 84.500 67.900 84.400 V 81.500 C 67.900 81.445 67.855 81.400 67.800 81.400 H 61.800 C 61.745 81.400 61.700 81.445 61.700 81.500 V 84.400 C 61.700 84.500 61.800 84.400 61.700 84.400 H 55.900 C 55.800 84.400 55.900 84.500 55.900 84.400 V 81.500 C 55.900 81.445 55.855 81.400 55.800 81.400 H 49.800 C 49.745 81.400 49.700 81.445 49.700 81.500 V 84.400 C 49.700 84.500 49.800 84.400 49.700 84.400 H 43.900 C 43.800 84.400 43.900 84.500 43.900 84.400 V 81.500 C 43.900 81.445 43.855 81.400 43.800 81.400 H 37.800 C 37.745 81.400 37.700 81.445 37.700 81.500 V 84.400 C 37.700 84.500 37.800 84.400 37.700 84.400 H 31.900 C 31.800 84.400 31.900 84.500 31.900 84.400 V 81.500 C 31.900 81.445 31.855 81.400 31.800 81.400 H 21.800 H 18.800 C 18.745 81.400 18.700 81.445 18.700 81.500 V 84.500 V 90.500 C 18.700 90.555 18.745 90.600 18.800 90.600 H 21.700 C 21.800 90.600 21.700 90.500 21.700 90.600 V 96.400 C 21.700 96.500 21.800 96.400 21.700 96.400 H 18.800 C 18.745 96.400 18.700 96.445 18.700 96.500 V 102.500 C 18.700 102.555 18.745 102.600 18.800 102.600 H 21.700 C 21.800 102.600 21.700 102.500 21.700 102.600 V 108.400 C 21.700 108.500 21.800 108.400 21.700 108.400 H 18.800 C 18.745 108.400 18.700 108.445 18.700 108.500 V 114.500 V 117.500 C 18.700 117.555 18.745 117.600 18.800 117.600 H 21.800" stroke="rgb(0,0,0)" stroke-width="0.20"/>
</g>
<g id="p-2" style="fill:none;stroke-linecap:round;stroke-linejoin:round;">
  <text dominant-baseline="hanging" font-size="4px" style="font-family: sans-serif ; font-weight: normal; font-style: normal; fill: rgb(255,0,0)" text-anchor="middle" transform="matrix( 1.000 0.000 0.000 1.000 104.500 97.600 )">Wall 2</text><path d="M 91.500 117.600 H 101.500 C 101.555 117.600 101.600 117.555 101.600 117.500 V 114.600 C 101.600 114.500 101.500 114.600 101.600 114.600 H 107.400 C 107.500 114.600 107.400 114.500 107.400 114.600 V 117.500 C 107.400 117.555 107.445 117.600 107.500 117.600 H 117.500 C 117.555 117.600 117.600 117.555 117.600 117.500 V 114.500 V 108.600 C 117.600 108.500 117.500 108.600 117.600 108.600 H 120.500 C 120.555 108.600 120.600 108.555 120.600 108.500 V 102.500 C 120.600 102.445 120.555 102.400 120.500 102.400 H 117.600 C 117.500 102.400 117.600 102.500 117.600 102.400 V 96.600 C 117.600 96.500 117.500 96.600 117.600 96.600 H 120.500 C 120.555 96.600 120.600 96.555 120.600 96.500 V 90.500 C 120.600 90.445 120.555 90.400 120.500 90.400 H 117.600 C 117.500 90.400 117.600 90.500 117.600 90.400 V 84.500 V 81.500 C 117.600 81.445 117.555 81.400 117.500 81.400 H 107.500 C 107.445 81.400 107.400 81.445 107.400 81.500 V 84.400 C 107.400 84.500 107.500 84.400 107.400 84.400 H 101.600 C 101.500 84.400 101.600 84.500 101.600 84.400 V 81.500 C 101.600 81.445 101.555 81.400 101.500 81.400 H 91.500 C 91.445 81.400 91.400 81.445 91.400 81.500 V 84.500 V 90.400 C 91.400 90.500 91.500 90.400 91.400 90.400 H 88.500 C 88.445 90.400 88.400 90.445 88.400 90.500 V 96.500 C 88.400 96.555 88.445 96.600 88.500 96.600 H 91.400 C 91.500 96.600 91.400 96.500 91.400 96.600 V 102.400 C 91.400 102.500 91.500 102.400 91.400 102.400 H 88.500 C 88.445 102.400 88.400 102.445 88.400 102.500 V 108.500 C 88.400 108.555 88.445 108.600 88.500 108.600 H 91.400 C 91.500 108.600 91.400 108.500 91.400 108.600 V 114.500 V 117.500 C 91.400 117.555 91.445 117.600 91.500 117.600" stroke="rgb(0,0,0)" stroke-width="0.20"/>
</g>
<g id="p-3" style="fill:none;stroke-linecap:round;stroke-linejoin:round;">
  <text dominant-baseline="hanging" font-size="4px" style="font-family: sans-serif ; font-weight: normal; font-style: normal; fill: rgb(255,0,0)" text-anchor="middle" transform="matrix( 1.000 0.000 0.000 1.000 104.500 59.900 )">Wall 4</text><path d="M 91.500 79.900 H 101.500 C 101.555 79.900 101.600 79.855 101.600 79.800 V 76.900 C 101.600 76.800 101.500 76.900 101.600 76.900 H 107.400 C 107.500 76.900 107.400 76.800 107.400 76.900 V 79.800 C 107.400 79.855 107.445 79.900 107.500 79.900 H 117.500 C 117.555 79.900 117.600 79.855 117.600 79.800 V 76.800 V 70.900 C 117.600 70.800 117.500 70.900 117.600 70.900 H 120.500 C 120.555 70.900 120.600 70.855 120.600 70.800 V 64.800 C 120.600 64.745 120.555 64.700 120.500 64.700 H 117.600 C 117.500 64.700 117.600 64.800 117.600 64.700 V 58.900 C 117.600 58.800 117.500 58.900 117.600 58.900 H 120.500 C 120.555 58.900 120.600 58.855 120.600 58.800 V 52.800 C 120.600 52.745 120.555 52.700 120.500 52.700 H 117.600 C 117.500 52.700 117.600 52.800 117.600 52.700 V 46.800 V 43.800 C 117.600 43.745 117.555 43.700 117.500 43.700 H 107.500 C 107.445 43.700 107.400 43.745 107.400 43.800 V 46.700 C 107.400 46.800 107.500 46.700 107.400 46.700 H 101.600 C 101.500 46.700 101.600 46.800 101.600 46.700 V 43.800 C 101.600 43.745 101.555 43.700 101.500 43.700 H 91.500 C 91.445 43.700 91.400 43.745 91.400 43.800 V 46.800 V 52.700 C 91.400 52.800 91.500 52.700 91.400 52.700 H 88.500 C 88.445 52.700 88.400 52.745 88.400 52.800 V 58.800 C 88.400 58.855 88.445 58.900 88.500 58.900 H 91.400 C 91.500 58.900 91.400 58.800 91.400 58.900 V 64.700 C 91.400 64.800 91.500 64.700 91.400 64.700 H 88.500 C 88.445 64.700 88.400 64.745 88.400 64.800 V 70.800 C 88.400 70.855 88.445 70.900 88.500 70.900 H 91.400 C 91.500 70.900 91.400 70.800 91.400 70.900 V 76.800 V 79.800 C 91.400 79.855 91.445 79.900 91.500 79.900" stroke="rgb(0,0,0)" stroke-width="0.20"/>
</g>
<g id="p-4" style="fill:none;stroke-linecap:round;stroke-linejoin:round;">
  <text dominant-baseline="hanging" font-size="4px" style="font-family: sans-serif ; font-weight: normal; font-style: normal; fill: rgb(255,0,0)" text-anchor="middle" transform="matrix( 1.000 0.000 0.000 1.000 52.800 59.900 )">Wall 3</text><path d="M 21.800 79.900 H 31.800 C 31.855 79.900 31.900 79.855 31.900 79.800 V 76.900 C 31.900 76.800 31.800 76.900 31.900 76.900 H 37.700 C 37.800 76.900 37.700 76.800 37.700 76.900 V 79.800 C 37.700 79.855 37.745 79.900 37.800 79.900 H 43.800 C 43.855 79.900 43.900 79.855 43.900 79.800 V 76.900 C 43.900 76.800 43.800 76.900 43.900 76.900 H 49.700 C 49.800 76.900 49.700 76.800 49.700 76.900 V 79.800 C 49.700 79.855 49.745 79.900 49.800 79.900 H 55.800 C 55.855 79.900 55.900 79.855 55.900 79.800 V 76.900 C 55.900 76.800 55.800 76.900 55.900 76.900 H 61.700 C 61.800 76.900 61.700 76.800 61.700 76.900 V 79.800 C 61.700 79.855 61.745 79.900 61.800 79.900 H 67.800 C 67.855 79.900 67.900 79.855 67.900 79.800 V 76.900 C 67.900 76.800 67.800 76.900 67.900 76.900 H 73.700 C 73.800 76.900 73.700 76.800 73.700 76.900 V 79.800 C 73.700 79.855 73.745 79.900 73.800 79.900 H 83.800 H 86.800 C 86.855 79.900 86.900 79.855 86.900 79.800 V 76.800 V 70.800 C 86.900 70.745 86.855 70.700 86.800 70.700 H 83.900 C 83.800 70.700 83.900 70.800 83.900 70.700 V 64.900 C 83.900 64.800 83.800 64.900 83.900 64.900 H 86.800 C 86.855 64.900 86.900 64.855 86.900 64.800 V 58.800 C 86.900 58.745 86.855 58.700 86.800 58.700 H 83.900 C 83.800 58.700 83.900 58.800 83.900 58.700 V 52.900 C 83.900 52.800 83.800 52.900 83.900 52.900 H 86.800 C 86.855 52.900 86.900 52.855 86.900 52.800 V 46.800 V 43.800 C 86.900 43.745 86.855 43.700 86.800 43.700 H 83.800 H 73.800 C 73.745 43.700 73.700 43.745 73.700 43.800 V 46.700 C 73.700 46.800 73.800 46.700 73.700 46.700 H 67.900 C 67.800 46.700 67.900 46.800 67.900 46.700 V 43.800 C 67.900 43.745 67.855 43.700 67.800 43.700 H 61.800 C 61.745 43.700 61.700 43.745 61.700 43.800 V 46.700 C 61.700 46.800 61.800 46.700 61.700 46.700 H 55.900 C 55.800 46.700 55.900 46.800 55.900 46.700 V 43.800 C 55.900 43.745 55.855 43.700 55.800 43.700 H 49.800 C 49.745 43.700 49.700 43.745 49.700 43.800 V 46.700 C 49.700 46.800 49.800 46.700 49.700 46.700 H 43.900 C 43.800 46.700 43.900 46.800 43.900 46.700 V 43.800 C 43.900 43.745 43.855 43.700 43.800 43.700 H 37.800 C 37.745 43.700 37.700 43.745 37.700 43.800 V 46.700 C 37.700 46.800 37.800 46.700 37.700 46.700 H 31.900 C 31.800 46.700 31.900 46.800 31.900 46.700 V 43.800 C 31.900 43.745 31.855 43.700 31.800 43.700 H 21.800 H 18.800 C 18.745 43.700 18.700 43.745 18.700 43.800 V 46.800 V 52.800 C 18.700 52.855 18.745 52.900 18.800 52.900 H 21.700 C 21.800 52.900 21.700 52.800 21.700 52.900 V 58.700 C 21.700 58.800 21.800 58.700 21.700 58.700 H 18.800 C 18.745 58.700 18.700 58.745 18.700 58.800 V 64.800 C 18.700 64.855 18.745 64.900 18.800 64.900 H 21.700 C 21.800 64.900 21.700 64.800 21.700 64.900 V 70.700 C 21.700 70.800 21.800 70.700 21.700 70.700 H 18.800 C 18.745 70.700 18.700 70.745 18.700 70.800 V 76.800 V 79.800 C 18.700 79.855 18.745 79.900 18.800 79.900 H 21.800" stroke="rgb(0,0,0)" stroke-width="0.20"/>
</g>
<g id="p-5" style="fill:none;stroke-linecap:round;stroke-linejoin:round;">
  <text dominant-baseline="hanging" font-size="4px" style="font-family: sans-serif ; font-weight: normal; font-style: normal; fill: rgb(255,0,0)" text-anchor="middle" transform="matrix( 1.000 0.000 0.000 1.000 52.800 24.200 )">Top</text><path d="M 21.800 39.200 H 31.700 C 31.800 39.200 31.700 39.100 31.700 39.200 V 42.100 C 31.700 42.155 31.745 42.200 31.800 42.200 H 37.800 C 37.855 42.200 37.900 42.155 37.900 42.100 V 39.200 C 37.900 39.100 37.800 39.200 37.900 39.200 H 43.700 C 43.800 39.200 43.700 39.100 43.700 39.200 V 42.100 C 43.700 42.155 43.745 42.200 43.800 42.200 H 49.800 C 49.855 42.200 49.900 42.155 49.900 42.100 V 39.200 C 49.900 39.100 49.800 39.200 49.900 39.200 H 55.700 C 55.800 39.200 55.700 39.100 55.700 39.200 V 42.100 C 55.700 42.155 55.745 42.200 55.800 42.200 H 61.800 C 61.855 42.200 61.900 42.155 61.900 42.100 V 39.200 C 61.900 39.100 61.800 39.200 61.900 39.200 H 67.700 C 67.800 39.200 67.700 39.100 67.700 39.200 V 42.100 C 67.700 42.155 67.745 42.200 67.800 42.200 H 73.800 C 73.855 42.200 73.900 42.155 73.900 42.100 V 39.200 C 73.900 39.100 73.800 39.200 73.900 39.200 H 83.800 C 83.855 39.200 83.900 39.155 83.900 39.100 V 29.200 C 83.900 29.100 83.800 29.200 83.900 29.200 H 86.800 C 86.855 29.200 86.900 29.155 86.900 29.100 V 23.100 C 86.900 23.045 86.855 23.000 86.800 23.000 H 83.900 C 83.800 23.000 83.900 23.100 83.900 23.000 V 13.100 C 83.900 13.045 83.855 13.000 83.800 13.000 H 73.900 C 73.800 13.000 73.900 13.100 73.900 13.000 V 10.100 C 73.900 10.045 73.855 10.000 73.800 10.000 H 67.800 C 67.745 10.000 67.700 10.045 67.700 10.100 V 13.000 C 67.700 13.100 67.800 13.000 67.700 13.000 H 61.900 C 61.800 13.000 61.900 13.100 61.900 13.000 V 10.100 C 61.900 10.045 61.855 10.000 61.800 10.000 H 55.800 C 55.745 10.000 55.700 10.045 55.700 10.100 V 13.000 C 55.700 13.100 55.800 13.000 55.700 13.000 H 49.900 C 49.800 13.000 49.900 13.100 49.900 13.000 V 10.100 C 49.900 10.045 49.855 10.000 49.800 10.000 H 43.800 C 43.745 10.000 43.700 10.045 43.700 10.100 V 13.000 C 43.700 13.100 43.800 13.000 43.700 13.000 H 37.900 C 37.800 13.000 37.900 13.100 37.900 13.000 V 10.100 C 37.900 10.045 37.855 10.000 37.800 10.000 H 31.800 C 31.745 10.000 31.700 10.045 31.700 10.100 V 13.000 C 31.700 13.100 31.800 13.000 31.700 13.000 H 21.800 C 21.745 13.000 21.700 13.045 21.700 13.100 V 23.000 C 21.700 23.100 21.800 23.000 21.700 23.000 H 18.800 C 18.745 23.000 18.700 23.045 18.700 23.100 V 29.100 C 18.700 29.155 18.745 29.200 18.800 29.200 H 21.700 C 21.800 29.200 21.700 29.100 21.700 29.200 V 39.100 C 21.700 39.155 21.745 39.200 21.800 39.200" stroke="rgb(0,0,0)" stroke-width="0.20"/>
</g>
<g id="p-6" style="fill:none;stroke-linecap:round;stroke-linejoin:round;">
  <text dominant-baseline="hanging" font-size="4px" style="font-family: sans-serif ; font-weight: normal; font-style: normal; fill: rgb(255,0,0)" text-anchor="middle" transform="matrix( 1.000 0.000 0.000 1.000 122.500 24.200 )">Bottom</text><path d="M 91.500 39.200 H 101.400 C 101.500 39.200 101.400 39.100 101.400 39.200 V 42.100 C 101.400 42.155 101.445 42.200 101.500 42.200 H 107.500 C 107.555 42.200 107.600 42.155 107.600 42.100 V 39.200 C 107.600 39.100 107.500 39.200 107.600 39.200 H 113.400 C 113.500 39.200 113.400 39.100 113.400 39.200 V 42.100 C 113.400 42.155 113.445 42.200 113.500 42.200 H 119.500 C 119.555 42.200 119.600 42.155 119.600 42.100 V 39.200 C 119.600 39.100 119.500 39.200 119.600 39.200 H 125.400 C 125.500 39.200 125.400 39.100 125.400 39.200 V 42.100 C 125.400 42.155 125.445 42.200 125.500 42.200 H 131.500 C 131.555 42.200 131.600 42.155 131.600 42.100 V 39.200 C 131.600 39.100 131.500 39.200 131.600 39.200 H 137.400 C 137.500 39.200 137.400 39.100 137.400 39.200 V 42.100 C 137.400 42.155 137.445 42.200 137.500 42.200 H 143.500 C 143.555 42.200 143.600 42.155 143.600 42.100 V 39.200 C 143.600 39.100 143.500 39.200 143.600 39.200 H 153.500 C 153.555 39.200 153.600 39.155 153.600 39.100 V 29.200 C 153.600 29.100 153.500 29.200 153.600 29.200 H 156.500 C 156.555 29.200 156.600 29.155 156.600 29.100 V 23.100 C 156.600 23.045 156.555 23.000 156.500 23.000 H 153.600 C 153.500 23.000 153.600 23.100 153.600 23.000 V 13.100 C 153.600 13.045 153.555 13.000 153.500 13.000 H 143.600 C 143.500 13.000 143.600 13.100 143.600 13.000 V 10.100 C 143.600 10.045 143.555 10.000 143.500 10.000 H 137.500 C 137.445 10.000 137.400 10.045 137.400 10.100 V 13.000 C 137.400 13.100 137.500 13.000 137.400 13.000 H 131.600 C 131.500 13.000 131.600 13.100 131.600 13.000 V 10.100 C 131.600 10.045 131.555 10.000 131.500 10.000 H 125.500 C 125.445 10.000 125.400 10.045 125.400 10.100 V 13.000 C 125.400 13.100 125.500 13.000 125.400 13.000 H 119.600 C 119.500 13.000 119.600 13.100 119.600 13.000 V 10.100 C 119.600 10.045 119.555 10.000 119.500 10.000 H 113.500 C 113.445 10.000 113.400 10.045 113.400 10.100 V 13.000 C 113.400 13.100 113.500 13.000 113.400 13.000 H 107.600 C 107.500 13.000 107.600 13.100 107.600 13.000 V 10.100 C 107.600 10.045 107.555 10.000 107.500 10.000 H 101.500 C 101.445 10.000 101.400 10.045 101.400 10.100 V 13.000 C 101.400 13.100 101.500 13.000 101.400 13.000 H 91.500 C 91.445 13.000 91.400 13.045 91.400 13.100 V 23.000 C 91.400 23.100 91.500 23.000 91.400 23.000 H 88.500 C 88.445 23.000 88.400 23.045 88.400 23.100 V 29.100 C 88.400 29.155 88.445 29.200 88.500 29.200 H 91.400 C 91.500 29.200 91.400 29.100 91.400 29.200 V 39.100 C 91.400 39.155 91.445 39.200 91.500 39.200" stroke="rgb(0,0,0)" stroke-width="0.20"/>
</g>
</svg>