<?xml version="1.0" encoding="UTF-8"?>
<svg height="106.60mm" viewBox="0.0 0.0 153.90 106.60" width="153.90mm" xmlns="http://www.w3.org/2000/svg" xmlns:cc="http://creativecommons.org/ns#" xmlns:dc="http://purl.org/dc/elements/1.1/" xmlns:inkscape="http://www.inkscape.org/namespaces/inkscape" xmlns:rdf="http://www.w3.org/1999/02/22-rdf-syntax-ns#" xmlns:svg="http://www.w3.org/2000/svg" xmlns:xlink="http://www.w3.org/1999/xlink">
<!--
ClosedBox - Fully closed box


This box is more of a building block than a finished item.
Use a vector graphics program (like Inkscape) to add holes or adjust the base
plate.

See BasedBox for variant with a base.


Created with Boxes.py (https://festi.info/boxes.py)
Creation date: 2024-01-18 03:10:36
Command line (remove spaces between dashes): boxes ClosedBox - -x=60 - -y=25 - -h=20 - -outside=0 - -reference=0
Url: http://www.festi.info/boxes.py/ClosedBox?FingerJoint_angle=90.0&FingerJoint_style=rectangular&FingerJoint_surroundingspaces=2.0&FingerJoint_bottom_lip=0.0&FingerJoint_edge_width=1.0&FingerJoint_extra_length=0.0&FingerJoint_finger=2.0&FingerJoint_play=0.0&FingerJoint_space=2.0&FingerJoint_width=1.0&x=60&y=25&h=20&outside=0&thickness=3.0&format=svg&tabs=0.0&qr_code=0&debug=0&labels=0&labels=1&reference=0&inner_corners=loop&burn=0.1&language=en&render=1
Url short: http://www.festi.info/boxes.py/ClosedBox?x=60&y=25&h=20&outside=0&reference=0
SettingsUrl: http://www.festi.info/boxes.py/ClosedBox?FingerJoint_angle=90.0&FingerJoint_style=rectangular&FingerJoint_surroundingspaces=2.0&FingerJoint_bottom_lip=0.0&FingerJoint_edge_width=1.0&FingerJoint_extra_length=0.0&FingerJoint_finger=2.0&FingerJoint_play=0.0&FingerJoint_space=2.0&FingerJoint_width=1.0&x=60&y=25&h=20&outside=0&thickness=3.0&format=svg&tabs=0.0&qr_code=0&debug=0&labels=0&labels=1&reference=0&inner_corners=loop&burn=0.1&language=en
SettingsUrl short: http://www.festi.info/boxes.py/ClosedBox?x=60&y=25&h=20&outside=0&reference=0
-->
<title>ClosedBox</title>
<metadata>
<rdf:RDF><cc:Work>
<dc:title>Box - ClosedBox</dc:title>
<dc:date>2024-01-18 03:10:36</dc:date>
<dc:source>http://www.festi.info/boxes.py/ClosedBox?FingerJoint_angle=90.0&amp;FingerJoint_style=rectangular&amp;FingerJoint_surroundingspaces=2.0&amp;FingerJoint_bottom_lip=0.0&amp;FingerJoint_edge_width=1.0&amp;FingerJoint_extra_length=0.0&amp;FingerJoint_finger=2.0&amp;FingerJoint_play=0.0&amp;FingerJoint_space=2.0&amp;FingerJoint_width=1.0&amp;x=60&amp;y=25&amp;h=20&amp;outside=0&amp;thickness=3.0&amp;format=svg&amp;tabs=0.0&amp;qr_code=0&amp;debug=0&amp;labels=0&amp;labels=1&amp;reference=0&amp;inner_corners=loop&amp;burn=0.1&amp;language=en&amp;render=1</dc:source>
<dc:source>http://www.festi.info/boxes.py/ClosedBox?x=60&amp;y=25&amp;h=20&amp;outside=0&amp;reference=0</dc:source>
<dc:description>Fully closed box

This box is more of a building block than a finished item.
Use a vector graphics program (like Inkscape) to add holes or adjust the base
plate.

See BasedBox for variant with a base.

Created with Boxes.py (https://festi.info/boxes.py)
Command line: boxes ClosedBox --FingerJoint_angle=90.0 --FingerJoint_style=rectangular --FingerJoint_surroundingspaces=2.0 --FingerJoint_bottom_lip=0.0 --FingerJoint_edge_width=1.0 --FingerJoint_extra_length=0.0 --FingerJoint_finger=2.0 --FingerJoint_play=0.0 --FingerJoint_space=2.0 --FingerJoint_width=1.0 --x=60 --y=25 --h=20 --outside=0 --thickness=3.0 --format=svg --tabs=0.0 --qr_code=0 --debug=0 --labels=0 --labels=1 --reference=0 --inner_corners=loop --burn=0.1
Command line short: boxes ClosedBox --x=60 --y=25 --h=20 --outside=0 --reference=0
Url: http://www.festi.info/boxes.py/ClosedBox?FingerJoint_angle=90.0&amp;FingerJoint_style=rectangular&amp;FingerJoint_surroundingspaces=2.0&amp;FingerJoint_bottom_lip=0.0&amp;FingerJoint_edge_width=1.0&amp;FingerJoint_extra_length=0.0&amp;FingerJoint_finger=2.0&amp;FingerJoint_play=0.0&amp;FingerJoint_space=2.0&amp;FingerJoint_width=1.0&amp;x=60&amp;y=25&amp;h=20&amp;outside=0&amp;thickness=3.0&amp;format=svg&amp;tabs=0.0&amp;qr_code=0&amp;debug=0&amp;labels=0&amp;labels=1&amp;reference=0&amp;inner_corners=loop&amp;burn=0.1&amp;language=en&amp;render=1
Url short: http://www.festi.info/boxes.py/ClosedBox?x=60&amp;y=25&amp;h=20&amp;outside=0&amp;reference=0
SettingsUrl: http://www.festi.info/boxes.py/ClosedBox?FingerJoint_angle=90.0&amp;FingerJoint_style=rectangular&amp;FingerJoint_surroundingspaces=2.0&amp;FingerJoint_bottom_lip=0.0&amp;FingerJoint_edge_width=1.0&amp;FingerJoint_extra_length=0.0&amp;FingerJoint_finger=2.0&amp;FingerJoint_play=0.0&amp;FingerJoint_space=2.0&amp;FingerJoint_width=1.0&amp;x=60&amp;y=25&amp;h=20&amp;outside=0&amp;thickness=3.0&amp;format=svg&amp;tabs=0.0&amp;qr_code=0&amp;debug=0&amp;labels=0&amp;labels=1&amp;reference=0&amp;inner_corners=loop&amp;burn=0.1&amp;language=en
SettingsUrl short: http://www.festi.info/boxes.py/ClosedBox?x=60&amp;y=25&amp;h=20&amp;outside=0&amp;reference=0
</dc:description>
</cc:Work></rdf:RDF></metadata>
<g id="p-0" style="fill:none;stroke-linecap:round;stroke-linejoin:round;">
  <text dominant-baseline="hanging" font-size="4px" style="font-family: sans-serif ; font-weight: normal; font-style: normal; fill: rgb(255,0,0)" text-anchor="middle" transform="matrix( 1.000 0.000 0.000 1.000 43.100 81.600 )">Wall 1</text><path d="M 13.100 96.600 H 22.100 C 22.155 96.600 22.200 96.555 22.200 96.500 V 93.600 C 22.200 93.500 22.100 93.600 22.200 93.600 H 28.000 C 28.100 93.600 28.000 93.500 28.000 93.600 V 96.500 C 28.000 96.555 28.045 96.600 28.100 96.600 H 34.100 C 34.155 96.600 34.200 96.555 34.200 96.500 V 93.600 C 34.200 93.500 34.100 93.600 34.200 93.600 H 40.000 C 40.100 93.600 40.000 93.500 40.000 93.600 V 96.500 C 40.000 96.555 40.045 96.600 40.100 96.600 H 46.100 C 46.155 96.600 46.200 96.555 46.200 96.500 V 93.600 C 46.200 93.500 46.100 93.600 46.200 93.600 H 52.000 C 52.100 93.600 52.000 93.500 52.000 93.600 V 96.500 C 52.000 96.555 52.045 96.600 52.100 96.600 H 58.100 C 58.155 96.600 58.200 96.555 58.200 96.500 V 93.600 C 58.200 93.500 58.100 93.600 58.200 93.600 H 64.000 C 64.100 93.600 64.000 93.500 64.000 93.600 V 96.500 C 64.000 96.555 64.045 96.600 64.100 96.600 H 73.100 H 76.100 C 76.155 96.600 76.200 96.555 76.200 96.500 V 93.500 V 86.500 C 76.200 86.445 76.155 86.400 76.100 86.400 H 73.200 C 73.100 86.400 73.200 86.500 73.200 86.400 V 80.600 C 73.200 80.500 73.100 80.600 73.200 80.600 H 76.100 C 76.155 80.600 76.200 80.555 76.200 80.500 V 73.500 V 70.500 C 76.200 70.445 76.155 70.400 76.100 70.400 H 73.100 H 64.100 C 64.045 70.400 64.000 70.445 64.000 70.500 V 73.400 C 64.000 73.500 64.100 73.400 64.000 73.400 H 58.200 C 58.100 73.400 58.200 73.500 58.200 73.400 V 70.500 C 58.200 70.445 58.155 70.400 58.100 70.400 H 52.100 C 52.045 70.400 52.000 70.445 52.000 70.500 V 73.400 C 52.000 73.500 52.100 73.400 52.000 73.400 H 46.200 C 46.100 73.400 46.200 73.500 46.200 73.400 V 70.500 C 46.200 70.445 46.155 70.400 46.100 70.400 H 40.100 C 40.045 70.400 40.000 70.445 40.000 70.500 V 73.400 C 40.000 73.500 40.100 73.400 40.000 73.400 H 34.200 C 34.100 73.400 34.200 73.500 34.200 73.400 V 70.500 C 34.200 70.445 34.155 70.400 34.100 70.400 H 28.100 C 28.045 70.400 28.000 70.445 28.000 70.500 V 73.400 C 28.000 73.500 28.100 73.400 28.000 73.400 H 22.200 C 22.100 73.400 22.200 73.500 22.200 73.400 V 70.500 C 22.200 70.445 22.155 70.400 22.100 70.400 H 13.100 H 10.100 C 10.045 70.400 10.000 70.445 10.000 70.500 V 73.500 V 80.500 C 10.000 80.555 10.045 80.600 10.100 80.600 H 13.000 C 13.100 80.600 13.000 80.500 13.000 80.600 V 86.400 C 13.000 86.500 13.100 86.400 13.000 86.400 H 10.100 C 10.045 86.400 10.000 86.445 10.000 86.500 V 93.500 V 96.500 C 10.000 96.555 10.045 96.600 10.100 96.600 H 13.100" stroke="rgb(0,0,0)" stroke-width="0.20"/>
</g>
<g id="p-1" style="fill:none;stroke-linecap:round;stroke-linejoin:round;">
  <text dominant-baseline="hanging" font-size="4px" style="font-family: sans-serif ; font-weight: normal; font-style: normal; fill: rgb(255,0,0)" text-anchor="middle" transform="matrix( 1.000 0.000 0.000 1.000 93.300 81.600 )">Wall 2</text><path d="M 80.800 96.600 H 90.300 C 90.355 96.600 90.400 96.555 90.400 96.500 V 93.600 C 90.400 93.500 90.300 93.600 90.400 93.600 H 96.200 C 96.300 93.600 96.200 93.500 96.200 93.600 V 96.500 C 96.200 96.555 96.245 96.600 96.300 96.600 H 105.800 C 105.855 96.600 105.900 96.555 105.900 96.500 V 93.500 V 86.600 C 105.900 86.500 105.800 86.600 105.900 86.600 H 108.800 C 108.855 86.600 108.900 86.555 108.900 86.500 V 80.500 C 108.900 80.445 108.855 80.400 108.800 80.400 H 105.900 C 105.800 80.400 105.900 80.500 105.900 80.400 V 73.500 V 70.500 C 105.900 70.445 105.855 70.400 105.800 70.400 H 96.300 C 96.245 70.400 96.200 70.445 96.200 70.500 V 73.400 C 96.200 73.500 96.300 73.400 96.200 73.400 H 90.400 C 90.300 73.400 90.400 73.500 90.400 73.400 V 70.500 C 90.400 70.445 90.355 70.400 90.300 70.400 H 80.800 C 80.745 70.400 80.700 70.445 80.700 70.500 V 73.500 V 80.400 C 80.700 80.500 80.800 80.400 80.700 80.400 H 77.800 C 77.745 80.400 77.700 80.445 77.700 80.500 V 86.500 C 77.700 86.555 77.745 86.600 77.800 86.600 H 80.700 C 80.800 86.600 80.700 86.500 80.700 86.600 V 93.500 V 96.500 C 80.700 96.555 80.745 96.600 80.800 96.600" stroke="rgb(0,0,0)" stroke-width="0.20"/>
</g>
<g id="p-2" style="fill:none;stroke-linecap:round;stroke-linejoin:round;">
  <text dominant-baseline="hanging" font-size="4px" style="font-family: sans-serif ; font-weight: normal; font-style: normal; fill: rgb(255,0,0)" text-anchor="middle" transform="matrix( 1.000 0.000 0.000 1.000 93.300 53.900 )">Wall 4</text><path d="M 80.800 68.900 H 90.300 C 90.355 68.900 90.400 68.855 90.400 68.800 V 65.900 C 90.400 65.800 90.300 65.900 90.400 65.900 H 96.200 C 96.300 65.900 96.200 65.800 96.200 65.900 V 68.800 C 96.200 68.855 96.245 68.900 96.300 68.900 H 105.800 C 105.855 68.900 105.900 68.855 105.900 68.800 V 65.800 V 58.900 C 105.900 58.800 105.800 58.900 105.900 58.900 H 108.800 C 108.855 58.900 108.900 58.855 108.900 58.800 V 52.800 C 108.900 52.745 108.855 52.700 108.800 52.700 H 105.900 C 105.800 52.700 105.900 52.800 105.900 52.700 V 45.800 V 42.800 C 105.900 42.745 105.855 42.700 105.800 42.700 H 96.300 C 96.245 42.700 96.200 42.745 96.200 42.800 V 45.700 C 96.200 45.800 96.300 45.700 96.200 45.700 H 90.400 C 90.300 45.700 90.400 45.800 90.400 45.700 V 42.800 C 90.400 42.745 90.355 42.700 90.300 42.700 H 80.800 C 80.745 42.700 80.700 42.745 80.700 42.800 V 45.800 V 52.700 C 80.700 52.800 80.800 52.700 80.700 52.700 H 77.800 C 77.745 52.700 77.700 52.745 77.700 52.800 V 58.800 C 77.700 58.855 77.745 58.900 77.800 58.900 H 80.700 C 80.800 58.900 80.700 58.800 80.700 58.900 V 65.800 V 68.800 C 80.700 68.855 80.745 68.900 80.800 68.900" stroke="rgb(0,0,0)" stroke-width="0.20"/>
</g>
<g id="p-3" style="fill:none;stroke-linecap:round;stroke-linejoin:round;">
  <text dominant-baseline="hanging" font-size="4px" style="font-family: sans-serif ; font-weight: normal; font-style: normal; fill: rgb(255,0,0)" text-anchor="middle" transform="matrix( 1.000 0.000 0.000 1.000 43.100 53.900 )">Wall 3</text><path d="M 13.100 68.900 H 22.100 C 22.155 68.900 22.200 68.855 22.200 68.800 V 65.900 C 22.200 65.800 22.100 65.900 22.200 65.900 H 28.000 C 28.100 65.900 28.000 65.800 28.000 65.900 V 68.800 C 28.000 68.855 28.045 68.900 28.100 68.900 H 34.100 C 34.155 68.900 34.200 68.855 34.200 68.800 V 65.900 C 34.200 65.800 34.100 65.900 34.200 65.900 H 40.000 C 40.100 65.900 40.000 65.800 40.000 65.900 V 68.800 C 40.000 68.855 40.045 68.900 40.100 68.900 H 46.100 C 46.155 68.900 46.200 68.855 46.200 68.800 V 65.900 C 46.200 65.800 46.100 65.900 46.200 65.900 H 52.000 C 52.100 65.900 52.000 65.800 52.000 65.900 V 68.800 C 52.000 68.855 52.045 68.900 52.100 68.900 H 58.100 C 58.155 68.900 58.200 68.855 58.200 68.800 V 65.900 C 58.200 65.800 58.100 65.900 58.200 65.900 H 64.000 C 64.100 65.900 64.000 65.800 64.000 65.900 V 68.800 C 64.000 68.855 64.045 68.900 64.100 68.900 H 73.100 H 76.100 C 76.155 68.900 76.200 68.855 76.200 68.800 V 65.800 V 58.800 C 76.200 58.745 76.155 58.700 76.100 58.700 H 73.200 C 73.100 58.700 73.200 58.800 73.200 58.700 V 52.900 C 73.200 52.800 73.100 52.900 73.200 52.900 H 76.100 C 76.155 52.900 76.200 52.855 76.200 52.800 V 45.800 V 42.800 C 76.200 42.745 76.155 42.700 76.100 42.700 H 73.100 H 64.100 C 64.045 42.700 64.000 42.745 64.000 42.800 V 45.700 C 64.000 45.800 64.100 45.700 64.000 45.700 H 58.200 C 58.100 45.700 58.200 45.800 58.200 45.700 V 42.800 C 58.200 42.745 58.155 42.700 58.100 42.700 H 52.100 C 52.045 42.700 52.000 42.745 52.000 42.800 V 45.700 C 52.000 45.800 52.100 45.700 52.000 45.700 H 46.200 C 46.100 45.700 46.200 45.800 46.200 45.700 V 42.800 C 46.200 42.745 46.155 42.700 46.100 42.700 H 40.100 C 40.045 42.700 40.000 42.745 40.000 42.800 V 45.700 C 40.000 45.800 40.100 45.700 40.000 45.700 H 34.200 C 34.100 45.700 34.200 45.800 34.200 45.700 V 42.800 C 34.200 42.745 34.155 42.700 34.100 42.700 H 28.100 C 28.045 42.700 28.000 42.745 28.000 42.800 V 45.700 C 28.000 45.800 28.100 45.700 28.000 45.700 H 22.200 C 22.100 45.700 22.200 45.800 22.200 45.700 V 42.800 C 22.200 42.745 22.155 42.700 22.100 42.700 H 13.100 H 10.100 C 10.045 42.700 10.000 42.745 10.000 42.800 V 45.800 V 52.800 C 10.000 52.855 10.045 52.900 10.100 52.900 H 13.000 C 13.100 52.900 13.000 52.800 13.000 52.900 V 58.700 C 13.000 58.800 13.100 58.700 13.000 58.700 H 10.100 C 10.045 58.700 10.000 58.745 10.000 58.800 V 65.800 V 68.800 C 10.000 68.855 10.045 68.900 10.100 68.900 H 13.100" stroke="rgb(0,0,0)" stroke-width="0.20"/>
</g>
<g id="p-4" style="fill:none;stroke-linecap:round;stroke-linejoin:round;">
  <text dominant-baseline="hanging" font-size="4px" style="font-family: sans-serif ; font-weight: normal; font-style: normal; fill: rgb(255,0,0)" text-anchor="middle" transform="matrix( 1.000 0.000 0.000 1.000 43.100 23.700 )">Top</text><path d="M 13.100 38.200 H 22.000 C 22.100 38.200 22.000 38.100 22.000 38.200 V 41.100 C 22.000 41.155 22.045 41.200 22.100 41.200 H 28.100 C 28.155 41.200 28.200 41.155 28.200 41.100 V 38.200 C 28.200 38.100 28.100 38.200 28.200 38.200 H 34.000 C 34.100 38.200 34.000 38.100 34.000 38.200 V 41.100 C 34.000 41.155 34.045 41.200 34.100 41.200 H 40.100 C 40.155 41.200 40.200 41.155 40.200 41.100 V 38.200 C 40.200 38.100 40.100 38.200 40.200 38.200 H 46.000 C 46.100 38.200 46.000 38.100 46.000 38.200 V 41.100 C 46.000 41.155 46.045 41.200 46.100 41.200 H 52.100 C 52.155 41.200 52.200 41.155 52.200 41.100 V 38.200 C 52.200 38.100 52.100 38.200 52.200 38.200 H 58.000 C 58.100 38.200 58.000 38.100 58.000 38.200 V 41.100 C 58.000 41.155 58.045 41.200 58.100 41.200 H 64.100 C 64.155 41.200 64.200 41.155 64.200 41.100 V 38.200 C 64.200 38.100 64.100 38.200 64.200 38.200 H 73.100 C 73.155 38.200 73.200 38.155 73.200 38.100 V 28.700 C 73.200 28.600 73.100 28.700 73.200 28.700 H 76.100 C 76.155 28.700 76.200 28.655 76.200 28.600 V 22.600 C 76.200 22.545 76.155 22.500 76.100 22.500 H 73.200 C 73.100 22.500 73.200 22.600 73.200 22.500 V 13.100 C 73.200 13.045 73.155 13.000 73.100 13.000 H 64.200 C 64.100 13.000 64.200 13.100 64.200 13.000 V 10.100 C 64.200 10.045 64.155 10.000 64.100 10.000 H 58.100 C 58.045 10.000 58.000 10.045 58.000 10.100 V 13.000 C 58.000 13.100 58.100 13.000 58.000 13.000 H 52.200 C 52.100 13.000 52.200 13.100 52.200 13.000 V 10.100 C 52.200 10.045 52.155 10.000 52.100 10.000 H 46.100 C 46.045 10.000 46.000 10.045 46.000 10.100 V 13.000 C 46.000 13.100 46.100 13.000 46.000 13.000 H 40.200 C 40.100 13.000 40.200 13.100 40.200 13.000 V 10.100 C 40.200 10.045 40.155 10.000 40.100 10.000 H 34.100 C 34.045 10.000 34.000 10.045 34.000 10.100 V 13.000 C 34.000 13.100 34.100 13.000 34.000 13.000 H 28.200 C 28.100 13.000 28.200 13.100 28.200 13.000 V 10.100 C 28.200 10.045 28.155 10.000 28.100 10.000 H 22.100 C 22.045 10.000 22.000 10.045 22.000 10.100 V 13.000 C 22.000 13.100 22.100 13.000 22.000 13.000 H 13.100 C 13.045 13.000 13.000 13.045 13.000 13.100 V 22.500 C 13.000 22.600 13.100 22.500 13.000 22.500 H 10.100 C 10.045 22.500 10.000 22.545 10.000 22.600 V 28.600 C 10.000 28.655 10.045 28.700 10.100 28.700 H 13.000 C 13.100 28.700 13.000 28.600 13.000 28.700 V 38.100 C 13.000 38.155 13.045 38.200 13.100 38.200" stroke="rgb(0,0,0)" stroke-width="0.20"/>
</g>
<g id="p-5" style="fill:none;stroke-linecap:round;stroke-linejoin:round;">
  <text dominant-baseline="hanging" font-size="4px" style="font-family: sans-serif ; font-weight: normal; font-style: normal; fill: rgb(255,0,0)" text-anchor="middle" transform="matrix( 1.000 0.000 0.000 1.000 110.800 23.700 )">Bottom</text><path d="M 80.800 38.200 H 89.700 C 89.800 38.200 89.700 38.100 89.700 38.200 V 41.100 C 89.700 41.155 89.745 41.200 89.800 41.200 H 95.800 C 95.855 41.200 95.900 41.155 95.900 41.100 V 38.200 C 95.900 38.100 95.800 38.200 95.900 38.200 H 101.700 C 101.800 38.200 101.700 38.100 101.700 38.200 V 41.100 C 101.700 41.155 101.745 41.200 101.800 41.200 H 107.800 C 107.855 41.200 107.900 41.155 107.900 41.100 V 38.200 C 107.900 38.100 107.800 38.200 107.900 38.200 H 113.700 C 113.800 38.200 113.700 38.100 113.700 38.200 V 41.100 C 113.700 41.155 113.745 41.200 113.800 41.200 H 119.800 C 119.855 41.200 119.900 41.155 119.900 41.100 V 38.200 C 119.900 38.100 119.800 38.200 119.900 38.200 H 125.700 C 125.800 38.200 125.700 38.100 125.700 38.200 V 41.100 C 125.700 41.155 125.745 41.200 125.800 41.200 H 131.800 C 131.855 41.200 131.900 41.155 131.900 41.100 V 38.200 C 131.900 38.100 131.800 38.200 131.900 38.200 H 140.800 C 140.855 38.200 140.900 38.155 140.900 38.100 V 28.700 C 140.900 28.600 140.800 28.700 140.900 28.700 H 143.800 C 143.855 28.700 143.900 28.655 143.900 28.600 V 22.600 C 143.900 22.545 143.855 22.500 143.800 22.500 H 140.900 C 140.800 22.500 140.900 22.600 140.900 22.500 V 13.100 C 140.900 13.045 140.855 13.000 140.800 13.000 H 131.900 C 131.800 13.000 131.900 13.100 131.900 13.000 V 10.100 C 131.900 10.045 131.855 10.000 131.800 10.000 H 125.800 C 125.745 10.000 125.700 10.045 125.700 10.100 V 13.000 C 125.700 13.100 125.800 13.000 125.700 13.000 H 119.900 C 119.800 13.000 119.900 13.100 119.900 13.000 V 10.100 C 119.900 10.045 119.855 10.000 119.800 10.000 H 113.800 C 113.745 10.000 113.700 10.045 113.700 10.100 V 13.000 C 113.700 13.100 113.800 13.000 113.700 13.000 H 107.900 C 107.800 13.000 107.900 13.100 107.900 13.000 V 10.100 C 107.900 10.045 107.855 10.000 107.800 10.000 H 101.800 C 101.745 10.000 101.700 10.045 101.700 10.100 V 13.000 C 101.700 13.100 101.800 13.000 101.700 13.000 H 95.900 C 95.800 13.000 95.900 13.100 95.900 13.000 V 10.100 C 95.900 10.045 95.855 10.000 95.800 10.000 H 89.800 C 89.745 10.000 89.700 10.045 89.700 10.100 V 13.000 C 89.700 13.100 89.800 13.000 89.700 13.000 H 80.800 C 80.745 13.000 80.700 13.045 80.700 13.100 V 22.500 C 80.700 22.600 80.800 22.500 80.700 22.500 H 77.800 C 77.745 22.500 77.700 22.545 77.700 22.600 V 28.600 C 77.700 28.655 77.745 28.700 77.800 28.700 H 80.700 C 80.800 28.700 80.700 28.600 80.700 28.700 V 38.100 C 80.700 38.155 80.745 38.200 80.800 38.200" stroke="rgb(0,0,0)" stroke-width="0.20"/>
</g>
</svg>