<?xml version="1.0" encoding="UTF-8"?>
<svg id="Layer_1" data-name="Layer 1" xmlns="http://www.w3.org/2000/svg" viewBox="0 0 305.21 93.14">
  <defs>
    <style>
      .cls-1 {
        fill: #fff;
      }

      .cls-1, .cls-2 {
        stroke-width: 0px;
      }

      .cls-2 {
        fill: #f15b3c;
      }
    </style>
  </defs>
  <g>
    <path class="cls-1" d="m118.21,30.66c8.88,0,15.99,7.15,15.99,16.03s-7.11,15.95-15.99,15.95-15.95-7.06-15.95-15.95,7.06-16.03,15.95-16.03Zm0,24.87c4.89,0,8.88-4,8.88-8.84s-4-8.93-8.88-8.93-8.84,4.04-8.84,8.93,4,8.84,8.84,8.84Z"/>
    <path class="cls-1" d="m157.79,30.66c4.44,0,7.73,1.38,10.75,4.13.4.36.4.89.05,1.24l-3.47,3.6c-.31.31-.8.31-1.11,0-1.64-1.47-3.82-2.27-6-2.27-5.02,0-8.71,4.18-8.71,9.15s3.73,9.02,8.75,9.02c2.09,0,4.35-.75,5.95-2.13.31-.27.89-.27,1.15.05l3.46,3.69c.31.31.27.89-.04,1.2-3.02,2.93-6.84,4.31-10.8,4.31-8.88,0-16.04-7.06-16.04-15.95s7.15-16.03,16.04-16.03Z"/>
    <path class="cls-1" d="m178.36,31.95c0-.44.35-.84.84-.84h18.39c.49,0,.84.4.84.84v4.84c0,.44-.35.84-.84.84h-12.3v6.4h10.13c.44,0,.84.4.84.84v4.84c0,.44-.4.84-.84.84h-10.13v10.8c0,.44-.4.84-.84.84h-5.24c-.49,0-.84-.4-.84-.84v-29.41Z"/>
  </g>
  <path class="cls-2" d="m258.74,50.39c-.73,0-1.45-.28-2.01-.83L212.03,4.85c-1.11-1.11-1.11-2.91,0-4.02,1.11-1.11,2.91-1.11,4.02,0l44.71,44.71c1.11,1.11,1.11,2.91,0,4.02-.55.55-1.28.83-2.01.83Z"/>
  <path class="cls-2" d="m217.86,93.14c-.71,0-1.41-.26-1.96-.79-1.13-1.08-1.17-2.88-.09-4.01l40.91-42.78c1.08-1.13,2.88-1.17,4.01-.09,1.13,1.08,1.17,2.88.09,4.01l-40.91,42.78c-.56.58-1.3.88-2.05.88Z"/>
  <path class="cls-2" d="m280.56,72.15c-.73,0-1.45-.28-2.01-.83l-21.82-21.82c-1.11-1.11-1.11-2.91,0-4.02l21.82-21.82c1.07-1.07,2.95-1.07,4.02,0l21.82,21.82c1.11,1.11,1.11,2.91,0,4.02l-21.82,21.82c-.55.55-1.28.83-2.01.83Zm-17.8-24.66l17.8,17.8,17.8-17.8-17.8-17.8-17.8,17.8Z"/>
  <path class="cls-2" d="m91.18,93.14c-.73,0-1.45-.28-2.01-.83l-44.71-44.71c-1.11-1.11-1.11-2.91,0-4.02s2.91-1.11,4.02,0l44.71,44.71c1.11,1.11,1.11,2.91,0,4.02-.55.55-1.28.83-2.01.83Z"/>
  <path class="cls-2" d="m46.44,48.46c-.71,0-1.41-.26-1.96-.79-1.13-1.08-1.17-2.88-.09-4.01L85.3.88c1.08-1.14,2.88-1.17,4.01-.09,1.13,1.08,1.17,2.88.09,4.01l-40.91,42.78c-.56.58-1.3.88-2.05.88Z"/>
  <path class="cls-2" d="m24.66,70.3c-.73,0-1.45-.28-2.01-.83L.83,47.65c-.53-.53-.83-1.26-.83-2.01s.3-1.48.83-2.01l21.82-21.82c1.11-1.11,2.91-1.11,4.02,0l21.82,21.82c.53.53.83,1.26.83,2.01s-.3,1.48-.83,2.01l-21.82,21.82c-.55.55-1.28.83-2.01.83ZM6.86,45.65l17.8,17.8,17.8-17.8-17.8-17.8L6.86,45.65Z"/>
</svg>