<?xml version="1.0"?>
<!-- Created with xTool Creative Space (https://www.xtool.com/pages/software) -->
<svg xmlns="http://www.w3.org/2000/svg" xmlns:xlink="http://www.w3.org/1999/xlink" xmlns:xcs="https://www.xtool.com/pages/software" version="1.1" preserveAspectRatio="xMinYMin meet" width="45mm" height="109.1mm" viewBox="35.2 2.9 45 109.1" xcs:version="1.7.8"><style>svg * { vector-effect: non-scaling-stroke; stroke-width: 1px; }</style>
<path transform="matrix(-1.03085e-16,0.641026,-0.641026,-1.03085e-16,86.622299,-3.46154)" stroke="#000000" fill="none" d="M 10.100 80.200 H 20.100 H 170.100 H 180.100 C 180.155 80.200 180.200 80.155 180.200 80.100 V 10.100 C 180.200 10.045 180.155 10.000 180.100 10.000 H 10.100 C 10.045 10.000 10.000 10.045 10.000 10.100 V 80.100 C 10.000 80.155 10.045 80.200 10.100 80.200 Z" fillRule="nonzero"></path><path transform="matrix(-1.03085e-16,0.641026,-0.641026,-1.03085e-16,86.622299,-3.46154)" stroke="#000000" fill="none" d="M 21.600 80.200 V 63.400 M 21.600 60.400 V 29.800 M 21.600 26.800 V 10.000 M 23.100 13.000 V 43.600 M 23.100 46.600 V 77.200 M 24.600 80.200 V 63.400 M 24.600 60.400 V 29.800 M 24.600 26.800 V 10.000 M 26.100 13.000 V 43.600 M 26.100 46.600 V 77.200 M 27.600 80.200 V 63.400 M 27.600 60.400 V 29.800 M 27.600 26.800 V 10.000 M 29.100 13.000 V 43.600 M 29.100 46.600 V 77.200 M 30.600 80.200 V 63.400 M 30.600 60.400 V 29.800 M 30.600 26.800 V 10.000 M 32.100 13.000 V 43.600 M 32.100 46.600 V 77.200 M 33.600 80.200 V 63.400 M 33.600 60.400 V 29.800 M 33.600 26.800 V 10.000 M 35.100 13.000 V 43.600 M 35.100 46.600 V 77.200 M 36.600 80.200 V 63.400 M 36.600 60.400 V 29.800 M 36.600 26.800 V 10.000 M 38.100 13.000 V 43.600 M 38.100 46.600 V 77.200 M 39.600 80.200 V 63.400 M 39.600 60.400 V 29.800 M 39.600 26.800 V 10.000 M 41.100 13.000 V 43.600 M 41.100 46.600 V 77.200 M 42.600 80.200 V 63.400 M 42.600 60.400 V 29.800 M 42.600 26.800 V 10.000 M 44.100 13.000 V 43.600 M 44.100 46.600 V 77.200 M 45.600 80.200 V 63.400 M 45.600 60.400 V 29.800 M 45.600 26.800 V 10.000 M 47.100 13.000 V 43.600 M 47.100 46.600 V 77.200 M 48.600 80.200 V 63.400 M 48.600 60.400 V 29.800 M 48.600 26.800 V 10.000 M 50.100 13.000 V 43.600 M 50.100 46.600 V 77.200 M 51.600 80.200 V 63.400 M 51.600 60.400 V 29.800 M 51.600 26.800 V 10.000 M 53.100 13.000 V 43.600 M 53.100 46.600 V 77.200 M 54.600 80.200 V 63.400 M 54.600 60.400 V 29.800 M 54.600 26.800 V 10.000 M 56.100 13.000 V 43.600 M 56.100 46.600 V 77.200 M 57.600 80.200 V 63.400 M 57.600 60.400 V 29.800 M 57.600 26.800 V 10.000 M 59.100 13.000 V 43.600 M 59.100 46.600 V 77.200 M 60.600 80.200 V 63.400 M 60.600 60.400 V 29.800 M 60.600 26.800 V 10.000 M 62.100 13.000 V 43.600 M 62.100 46.600 V 77.200 M 63.600 80.200 V 63.400 M 63.600 60.400 V 29.800 M 63.600 26.800 V 10.000 M 65.100 13.000 V 43.600 M 65.100 46.600 V 77.200 M 66.600 80.200 V 63.400 M 66.600 60.400 V 29.800 M 66.600 26.800 V 10.000 M 68.100 13.000 V 43.600 M 68.100 46.600 V 77.200 M 69.600 80.200 V 63.400 M 69.600 60.400 V 29.800 M 69.600 26.800 V 10.000 M 71.100 13.000 V 43.600 M 71.100 46.600 V 77.200 M 72.600 80.200 V 63.400 M 72.600 60.400 V 29.800 M 72.600 26.800 V 10.000 M 74.100 13.000 V 43.600 M 74.100 46.600 V 77.200 M 75.600 80.200 V 63.400 M 75.600 60.400 V 29.800 M 75.600 26.800 V 10.000 M 77.100 13.000 V 43.600 M 77.100 46.600 V 77.200 M 78.600 80.200 V 63.400 M 78.600 60.400 V 29.800 M 78.600 26.800 V 10.000 M 80.100 13.000 V 43.600 M 80.100 46.600 V 77.200 M 81.600 80.200 V 63.400 M 81.600 60.400 V 29.800 M 81.600 26.800 V 10.000 M 83.100 13.000 V 43.600 M 83.100 46.600 V 77.200 M 84.600 80.200 V 63.400 M 84.600 60.400 V 29.800 M 84.600 26.800 V 10.000 M 86.100 13.000 V 43.600 M 86.100 46.600 V 77.200 M 87.600 80.200 V 63.400 M 87.600 60.400 V 29.800 M 87.600 26.800 V 10.000 M 89.100 13.000 V 43.600 M 89.100 46.600 V 77.200 M 90.600 80.200 V 63.400 M 90.600 60.400 V 29.800 M 90.600 26.800 V 10.000 M 92.100 13.000 V 43.600 M 92.100 46.600 V 77.200 M 93.600 80.200 V 63.400 M 93.600 60.400 V 29.800 M 93.600 26.800 V 10.000 M 95.100 13.000 V 43.600 M 95.100 46.600 V 77.200 M 96.600 80.200 V 63.400 M 96.600 60.400 V 29.800 M 96.600 26.800 V 10.000 M 98.100 13.000 V 43.600 M 98.100 46.600 V 77.200 M 99.600 80.200 V 63.400 M 99.600 60.400 V 29.800 M 99.600 26.800 V 10.000 M 101.100 13.000 V 43.600 M 101.100 46.600 V 77.200 M 102.600 80.200 V 63.400 M 102.600 60.400 V 29.800 M 102.600 26.800 V 10.000 M 104.100 13.000 V 43.600 M 104.100 46.600 V 77.200 M 105.600 80.200 V 63.400 M 105.600 60.400 V 29.800 M 105.600 26.800 V 10.000 M 107.100 13.000 V 43.600 M 107.100 46.600 V 77.200 M 108.600 80.200 V 63.400 M 108.600 60.400 V 29.800 M 108.600 26.800 V 10.000 M 110.100 13.000 V 43.600 M 110.100 46.600 V 77.200 M 111.600 80.200 V 63.400 M 111.600 60.400 V 29.800 M 111.600 26.800 V 10.000 M 113.100 13.000 V 43.600 M 113.100 46.600 V 77.200 M 114.600 80.200 V 63.400 M 114.600 60.400 V 29.800 M 114.600 26.800 V 10.000 M 116.100 13.000 V 43.600 M 116.100 46.600 V 77.200 M 117.600 80.200 V 63.400 M 117.600 60.400 V 29.800 M 117.600 26.800 V 10.000 M 119.100 13.000 V 43.600 M 119.100 46.600 V 77.200 M 120.600 80.200 V 63.400 M 120.600 60.400 V 29.800 M 120.600 26.800 V 10.000 M 122.100 13.000 V 43.600 M 122.100 46.600 V 77.200 M 123.600 80.200 V 63.400 M 123.600 60.400 V 29.800 M 123.600 26.800 V 10.000 M 125.100 13.000 V 43.600 M 125.100 46.600 V 77.200 M 126.600 80.200 V 63.400 M 126.600 60.400 V 29.800 M 126.600 26.800 V 10.000 M 128.100 13.000 V 43.600 M 128.100 46.600 V 77.200 M 129.600 80.200 V 63.400 M 129.600 60.400 V 29.800 M 129.600 26.800 V 10.000 M 131.100 13.000 V 43.600 M 131.100 46.600 V 77.200 M 132.600 80.200 V 63.400 M 132.600 60.400 V 29.800 M 132.600 26.800 V 10.000 M 134.100 13.000 V 43.600 M 134.100 46.600 V 77.200 M 135.600 80.200 V 63.400 M 135.600 60.400 V 29.800 M 135.600 26.800 V 10.000 M 137.100 13.000 V 43.600 M 137.100 46.600 V 77.200 M 138.600 80.200 V 63.400 M 138.600 60.400 V 29.800 M 138.600 26.800 V 10.000 M 140.100 13.000 V 43.600 M 140.100 46.600 V 77.200 M 141.600 80.200 V 63.400 M 141.600 60.400 V 29.800 M 141.600 26.800 V 10.000 M 143.100 13.000 V 43.600 M 143.100 46.600 V 77.200 M 144.600 80.200 V 63.400 M 144.600 60.400 V 29.800 M 144.600 26.800 V 10.000 M 146.100 13.000 V 43.600 M 146.100 46.600 V 77.200 M 147.600 80.200 V 63.400 M 147.600 60.400 V 29.800 M 147.600 26.800 V 10.000 M 149.100 13.000 V 43.600 M 149.100 46.600 V 77.200 M 150.600 80.200 V 63.400 M 150.600 60.400 V 29.800 M 150.600 26.800 V 10.000 M 152.100 13.000 V 43.600 M 152.100 46.600 V 77.200 M 153.600 80.200 V 63.400 M 153.600 60.400 V 29.800 M 153.600 26.800 V 10.000 M 155.100 13.000 V 43.600 M 155.100 46.600 V 77.200 M 156.600 80.200 V 63.400 M 156.600 60.400 V 29.800 M 156.600 26.800 V 10.000 M 158.100 13.000 V 43.600 M 158.100 46.600 V 77.200 M 159.600 80.200 V 63.400 M 159.600 60.400 V 29.800 M 159.600 26.800 V 10.000 M 161.100 13.000 V 43.600 M 161.100 46.600 V 77.200 M 162.600 80.200 V 63.400 M 162.600 60.400 V 29.800 M 162.600 26.800 V 10.000 M 164.100 13.000 V 43.600 M 164.100 46.600 V 77.200 M 165.600 80.200 V 63.400 M 165.600 60.400 V 29.800 M 165.600 26.800 V 10.000 M 167.100 13.000 V 43.600 M 167.100 46.600 V 77.200 M 168.600 80.200 V 63.400 M 168.600 60.400 V 29.800 M 168.600 26.800 V 10.000" fillRule="nonzero"></path></svg>