<?xml version="1.0"?>
<!-- Created with xTool Creative Space (https://www.xtool.com/pages/software) -->
<svg xmlns="http://www.w3.org/2000/svg" xmlns:xlink="http://www.w3.org/1999/xlink" xmlns:xcs="https://www.xtool.com/pages/software" version="1.1" preserveAspectRatio="xMinYMin meet" width="113.9mm" height="101.6mm" viewBox="0 0 113.9 101.6" xcs:version="1.7.8"><style>svg * { vector-effect: non-scaling-stroke; stroke-width: 1px; }</style>
<path transform="matrix(1,0,0,1,-10,-10)" stroke="#000000" fill="none" d="M 13.100 111.600 H 23.100 C 23.155 111.600 23.200 111.555 23.200 111.500 V 108.600 C 23.200 108.500 23.100 108.600 23.200 108.600 H 29.000 C 29.100 108.600 29.000 108.500 29.000 108.600 V 111.500 C 29.000 111.555 29.045 111.600 29.100 111.600 H 35.100 C 35.155 111.600 35.200 111.555 35.200 111.500 V 108.600 C 35.200 108.500 35.100 108.600 35.200 108.600 H 41.000 C 41.100 108.600 41.000 108.500 41.000 108.600 V 111.500 C 41.000 111.555 41.045 111.600 41.100 111.600 H 47.100 C 47.155 111.600 47.200 111.555 47.200 111.500 V 108.600 C 47.200 108.500 47.100 108.600 47.200 108.600 H 53.000 C 53.100 108.600 53.000 108.500 53.000 108.600 V 111.500 C 53.000 111.555 53.045 111.600 53.100 111.600 H 63.100 H 66.100 C 66.155 111.600 66.200 111.555 66.200 111.500 V 108.500 V 101.500 C 66.200 101.445 66.155 101.400 66.100 101.400 H 63.200 C 63.100 101.400 63.200 101.500 63.200 101.400 V 95.600 C 63.200 95.500 63.100 95.600 63.200 95.600 H 66.100 C 66.155 95.600 66.200 95.555 66.200 95.500 V 88.500 V 85.500 C 66.200 85.445 66.155 85.400 66.100 85.400 H 63.100 H 53.100 C 53.045 85.400 53.000 85.445 53.000 85.500 V 88.400 C 53.000 88.500 53.100 88.400 53.000 88.400 H 47.200 C 47.100 88.400 47.200 88.500 47.200 88.400 V 85.500 C 47.200 85.445 47.155 85.400 47.100 85.400 H 41.100 C 41.045 85.400 41.000 85.445 41.000 85.500 V 88.400 C 41.000 88.500 41.100 88.400 41.000 88.400 H 35.200 C 35.100 88.400 35.200 88.500 35.200 88.400 V 85.500 C 35.200 85.445 35.155 85.400 35.100 85.400 H 29.100 C 29.045 85.400 29.000 85.445 29.000 85.500 V 88.400 C 29.000 88.500 29.100 88.400 29.000 88.400 H 23.200 C 23.100 88.400 23.200 88.500 23.200 88.400 V 85.500 C 23.200 85.445 23.155 85.400 23.100 85.400 H 13.100 H 10.100 C 10.045 85.400 10.000 85.445 10.000 85.500 V 88.500 V 95.500 C 10.000 95.555 10.045 95.600 10.100 95.600 H 13.000 C 13.100 95.600 13.000 95.500 13.000 95.600 V 101.400 C 13.000 101.500 13.100 101.400 13.000 101.400 H 10.100 C 10.045 101.400 10.000 101.445 10.000 101.500 V 108.500 V 111.500 C 10.000 111.555 10.045 111.600 10.100 111.600 H 13.100" fillRule="nonzero"></path><path transform="matrix(1,0,0,1,-10,-10)" stroke="#000000" fill="none" d="M 70.800 111.600 H 81.800 C 81.855 111.600 81.900 111.555 81.900 111.500 V 108.600 C 81.900 108.500 81.800 108.600 81.900 108.600 H 87.700 C 87.800 108.600 87.700 108.500 87.700 108.600 V 111.500 C 87.700 111.555 87.745 111.600 87.800 111.600 H 93.800 C 93.855 111.600 93.900 111.555 93.900 111.500 V 108.600 C 93.900 108.500 93.800 108.600 93.900 108.600 H 99.700 C 99.800 108.600 99.700 108.500 99.700 108.600 V 111.500 C 99.700 111.555 99.745 111.600 99.800 111.600 H 110.800 C 110.855 111.600 110.900 111.555 110.900 111.500 V 108.500 V 101.600 C 110.900 101.500 110.800 101.600 110.900 101.600 H 113.800 C 113.855 101.600 113.900 101.555 113.900 101.500 V 95.500 C 113.900 95.445 113.855 95.400 113.800 95.400 H 110.900 C 110.800 95.400 110.900 95.500 110.900 95.400 V 88.500 V 85.500 C 110.900 85.445 110.855 85.400 110.800 85.400 H 99.800 C 99.745 85.400 99.700 85.445 99.700 85.500 V 88.400 C 99.700 88.500 99.800 88.400 99.700 88.400 H 93.900 C 93.800 88.400 93.900 88.500 93.900 88.400 V 85.500 C 93.900 85.445 93.855 85.400 93.800 85.400 H 87.800 C 87.745 85.400 87.700 85.445 87.700 85.500 V 88.400 C 87.700 88.500 87.800 88.400 87.700 88.400 H 81.900 C 81.800 88.400 81.900 88.500 81.900 88.400 V 85.500 C 81.900 85.445 81.855 85.400 81.800 85.400 H 70.800 C 70.745 85.400 70.700 85.445 70.700 85.500 V 88.500 V 95.400 C 70.700 95.500 70.800 95.400 70.700 95.400 H 67.800 C 67.745 95.400 67.700 95.445 67.700 95.500 V 101.500 C 67.700 101.555 67.745 101.600 67.800 101.600 H 70.700 C 70.800 101.600 70.700 101.500 70.700 101.600 V 108.500 V 111.500 C 70.700 111.555 70.745 111.600 70.800 111.600" fillRule="nonzero"></path><path transform="matrix(1,0,0,1,-10,-10)" stroke="#000000" fill="none" d="M 70.800 83.900 H 81.800 C 81.855 83.900 81.900 83.855 81.900 83.800 V 80.900 C 81.900 80.800 81.800 80.900 81.900 80.900 H 87.700 C 87.800 80.900 87.700 80.800 87.700 80.900 V 83.800 C 87.700 83.855 87.745 83.900 87.800 83.900 H 93.800 C 93.855 83.900 93.900 83.855 93.900 83.800 V 80.900 C 93.900 80.800 93.800 80.900 93.900 80.900 H 99.700 C 99.800 80.900 99.700 80.800 99.700 80.900 V 83.800 C 99.700 83.855 99.745 83.900 99.800 83.900 H 110.800 C 110.855 83.900 110.900 83.855 110.900 83.800 V 80.800 V 73.900 C 110.900 73.800 110.800 73.900 110.900 73.900 H 113.800 C 113.855 73.900 113.900 73.855 113.900 73.800 V 67.800 C 113.900 67.745 113.855 67.700 113.800 67.700 H 110.900 C 110.800 67.700 110.900 67.800 110.900 67.700 V 60.800 V 57.800 C 110.900 57.745 110.855 57.700 110.800 57.700 H 99.800 C 99.745 57.700 99.700 57.745 99.700 57.800 V 60.700 C 99.700 60.800 99.800 60.700 99.700 60.700 H 93.900 C 93.800 60.700 93.900 60.800 93.900 60.700 V 57.800 C 93.900 57.745 93.855 57.700 93.800 57.700 H 87.800 C 87.745 57.700 87.700 57.745 87.700 57.800 V 60.700 C 87.700 60.800 87.800 60.700 87.700 60.700 H 81.900 C 81.800 60.700 81.900 60.800 81.900 60.700 V 57.800 C 81.900 57.745 81.855 57.700 81.800 57.700 H 70.800 C 70.745 57.700 70.700 57.745 70.700 57.800 V 60.800 V 67.700 C 70.700 67.800 70.800 67.700 70.700 67.700 H 67.800 C 67.745 67.700 67.700 67.745 67.700 67.800 V 73.800 C 67.700 73.855 67.745 73.900 67.800 73.900 H 70.700 C 70.800 73.900 70.700 73.800 70.700 73.900 V 80.800 V 83.800 C 70.700 83.855 70.745 83.900 70.800 83.900" fillRule="nonzero"></path><path transform="matrix(1,0,0,1,-10,-10)" stroke="#000000" fill="none" d="M 13.100 83.900 H 23.100 C 23.155 83.900 23.200 83.855 23.200 83.800 V 80.900 C 23.200 80.800 23.100 80.900 23.200 80.900 H 29.000 C 29.100 80.900 29.000 80.800 29.000 80.900 V 83.800 C 29.000 83.855 29.045 83.900 29.100 83.900 H 35.100 C 35.155 83.900 35.200 83.855 35.200 83.800 V 80.900 C 35.200 80.800 35.100 80.900 35.200 80.900 H 41.000 C 41.100 80.900 41.000 80.800 41.000 80.900 V 83.800 C 41.000 83.855 41.045 83.900 41.100 83.900 H 47.100 C 47.155 83.900 47.200 83.855 47.200 83.800 V 80.900 C 47.200 80.800 47.100 80.900 47.200 80.900 H 53.000 C 53.100 80.900 53.000 80.800 53.000 80.900 V 83.800 C 53.000 83.855 53.045 83.900 53.100 83.900 H 63.100 H 66.100 C 66.155 83.900 66.200 83.855 66.200 83.800 V 80.800 V 73.800 C 66.200 73.745 66.155 73.700 66.100 73.700 H 63.200 C 63.100 73.700 63.200 73.800 63.200 73.700 V 67.900 C 63.200 67.800 63.100 67.900 63.200 67.900 H 66.100 C 66.155 67.900 66.200 67.855 66.200 67.800 V 60.800 V 57.800 C 66.200 57.745 66.155 57.700 66.100 57.700 H 63.100 H 53.100 C 53.045 57.700 53.000 57.745 53.000 57.800 V 60.700 C 53.000 60.800 53.100 60.700 53.000 60.700 H 47.200 C 47.100 60.700 47.200 60.800 47.200 60.700 V 57.800 C 47.200 57.745 47.155 57.700 47.100 57.700 H 41.100 C 41.045 57.700 41.000 57.745 41.000 57.800 V 60.700 C 41.000 60.800 41.100 60.700 41.000 60.700 H 35.200 C 35.100 60.700 35.200 60.800 35.200 60.700 V 57.800 C 35.200 57.745 35.155 57.700 35.100 57.700 H 29.100 C 29.045 57.700 29.000 57.745 29.000 57.800 V 60.700 C 29.000 60.800 29.100 60.700 29.000 60.700 H 23.200 C 23.100 60.700 23.200 60.800 23.200 60.700 V 57.800 C 23.200 57.745 23.155 57.700 23.100 57.700 H 13.100 H 10.100 C 10.045 57.700 10.000 57.745 10.000 57.800 V 60.800 V 67.800 C 10.000 67.855 10.045 67.900 10.100 67.900 H 13.000 C 13.100 67.900 13.000 67.800 13.000 67.900 V 73.700 C 13.000 73.800 13.100 73.700 13.000 73.700 H 10.100 C 10.045 73.700 10.000 73.745 10.000 73.800 V 80.800 V 83.800 C 10.000 83.855 10.045 83.900 10.100 83.900 H 13.100" fillRule="nonzero"></path><path transform="matrix(1,0,0,1,-10,-10)" stroke="#000000" fill="none" d="M 13.100 53.200 H 23.000 C 23.100 53.200 23.000 53.100 23.000 53.200 V 56.100 C 23.000 56.155 23.045 56.200 23.100 56.200 H 29.100 C 29.155 56.200 29.200 56.155 29.200 56.100 V 53.200 C 29.200 53.100 29.100 53.200 29.200 53.200 H 35.000 C 35.100 53.200 35.000 53.100 35.000 53.200 V 56.100 C 35.000 56.155 35.045 56.200 35.100 56.200 H 41.100 C 41.155 56.200 41.200 56.155 41.200 56.100 V 53.200 C 41.200 53.100 41.100 53.200 41.200 53.200 H 47.000 C 47.100 53.200 47.000 53.100 47.000 53.200 V 56.100 C 47.000 56.155 47.045 56.200 47.100 56.200 H 53.100 C 53.155 56.200 53.200 56.155 53.200 56.100 V 53.200 C 53.200 53.100 53.100 53.200 53.200 53.200 H 63.100 C 63.155 53.200 63.200 53.155 63.200 53.100 V 42.200 C 63.200 42.100 63.100 42.200 63.200 42.200 H 66.100 C 66.155 42.200 66.200 42.155 66.200 42.100 V 36.100 C 66.200 36.045 66.155 36.000 66.100 36.000 H 63.200 C 63.100 36.000 63.200 36.100 63.200 36.000 V 30.200 C 63.200 30.100 63.100 30.200 63.200 30.200 H 66.100 C 66.155 30.200 66.200 30.155 66.200 30.100 V 24.100 C 66.200 24.045 66.155 24.000 66.100 24.000 H 63.200 C 63.100 24.000 63.200 24.100 63.200 24.000 V 13.100 C 63.200 13.045 63.155 13.000 63.100 13.000 H 53.200 C 53.100 13.000 53.200 13.100 53.200 13.000 V 10.100 C 53.200 10.045 53.155 10.000 53.100 10.000 H 47.100 C 47.045 10.000 47.000 10.045 47.000 10.100 V 13.000 C 47.000 13.100 47.100 13.000 47.000 13.000 H 41.200 C 41.100 13.000 41.200 13.100 41.200 13.000 V 10.100 C 41.200 10.045 41.155 10.000 41.100 10.000 H 35.100 C 35.045 10.000 35.000 10.045 35.000 10.100 V 13.000 C 35.000 13.100 35.100 13.000 35.000 13.000 H 29.200 C 29.100 13.000 29.200 13.100 29.200 13.000 V 10.100 C 29.200 10.045 29.155 10.000 29.100 10.000 H 23.100 C 23.045 10.000 23.000 10.045 23.000 10.100 V 13.000 C 23.000 13.100 23.100 13.000 23.000 13.000 H 13.100 C 13.045 13.000 13.000 13.045 13.000 13.100 V 24.000 C 13.000 24.100 13.100 24.000 13.000 24.000 H 10.100 C 10.045 24.000 10.000 24.045 10.000 24.100 V 30.100 C 10.000 30.155 10.045 30.200 10.100 30.200 H 13.000 C 13.100 30.200 13.000 30.100 13.000 30.200 V 36.000 C 13.000 36.100 13.100 36.000 13.000 36.000 H 10.100 C 10.045 36.000 10.000 36.045 10.000 36.100 V 42.100 C 10.000 42.155 10.045 42.200 10.100 42.200 H 13.000 C 13.100 42.200 13.000 42.100 13.000 42.200 V 53.100 C 13.000 53.155 13.045 53.200 13.100 53.200" fillRule="nonzero"></path><path transform="matrix(1,0,0,1,-10,-10)" stroke="#000000" fill="none" d="M 70.800 53.200 H 80.700 C 80.800 53.200 80.700 53.100 80.700 53.200 V 56.100 C 80.700 56.155 80.745 56.200 80.800 56.200 H 86.800 C 86.855 56.200 86.900 56.155 86.900 56.100 V 53.200 C 86.900 53.100 86.800 53.200 86.900 53.200 H 92.700 C 92.800 53.200 92.700 53.100 92.700 53.200 V 56.100 C 92.700 56.155 92.745 56.200 92.800 56.200 H 98.800 C 98.855 56.200 98.900 56.155 98.900 56.100 V 53.200 C 98.900 53.100 98.800 53.200 98.900 53.200 H 104.700 C 104.800 53.200 104.700 53.100 104.700 53.200 V 56.100 C 104.700 56.155 104.745 56.200 104.800 56.200 H 110.800 C 110.855 56.200 110.900 56.155 110.900 56.100 V 53.200 C 110.900 53.100 110.800 53.200 110.900 53.200 H 120.800 C 120.855 53.200 120.900 53.155 120.900 53.100 V 42.200 C 120.900 42.100 120.800 42.200 120.900 42.200 H 123.800 C 123.855 42.200 123.900 42.155 123.900 42.100 V 36.100 C 123.900 36.045 123.855 36.000 123.800 36.000 H 120.900 C 120.800 36.000 120.900 36.100 120.900 36.000 V 30.200 C 120.900 30.100 120.800 30.200 120.900 30.200 H 123.800 C 123.855 30.200 123.900 30.155 123.900 30.100 V 24.100 C 123.900 24.045 123.855 24.000 123.800 24.000 H 120.900 C 120.800 24.000 120.900 24.100 120.900 24.000 V 13.100 C 120.900 13.045 120.855 13.000 120.800 13.000 H 110.900 C 110.800 13.000 110.900 13.100 110.900 13.000 V 10.100 C 110.900 10.045 110.855 10.000 110.800 10.000 H 104.800 C 104.745 10.000 104.700 10.045 104.700 10.100 V 13.000 C 104.700 13.100 104.800 13.000 104.700 13.000 H 98.900 C 98.800 13.000 98.900 13.100 98.900 13.000 V 10.100 C 98.900 10.045 98.855 10.000 98.800 10.000 H 92.800 C 92.745 10.000 92.700 10.045 92.700 10.100 V 13.000 C 92.700 13.100 92.800 13.000 92.700 13.000 H 86.900 C 86.800 13.000 86.900 13.100 86.900 13.000 V 10.100 C 86.900 10.045 86.855 10.000 86.800 10.000 H 80.800 C 80.745 10.000 80.700 10.045 80.700 10.100 V 13.000 C 80.700 13.100 80.800 13.000 80.700 13.000 H 70.800 C 70.745 13.000 70.700 13.045 70.700 13.100 V 24.000 C 70.700 24.100 70.800 24.000 70.700 24.000 H 67.800 C 67.745 24.000 67.700 24.045 67.700 24.100 V 30.100 C 67.700 30.155 67.745 30.200 67.800 30.200 H 70.700 C 70.800 30.200 70.700 30.100 70.700 30.200 V 36.000 C 70.700 36.100 70.800 36.000 70.700 36.000 H 67.800 C 67.745 36.000 67.700 36.045 67.700 36.100 V 42.100 C 67.700 42.155 67.745 42.200 67.800 42.200 H 70.700 C 70.800 42.200 70.700 42.100 70.700 42.200 V 53.100 C 70.700 53.155 70.745 53.200 70.800 53.200" fillRule="nonzero"></path><rect transform="matrix(1,0,0,1,20.744827,53.300001)" stroke="#000000" fill="none" x="0" y="0" width="15.000000000000073" height="15.000000000000073"></rect><path transform="matrix(1,0,0,1,7.325398,2.767649)" stroke="#000000" fill="none" d="M 14.376 28.694 C 14.376 29.122 14.253 29.541 14.022 29.901 C 13.790 30.261 13.460 30.547 13.071 30.725 C 12.681 30.903 12.249 30.965 11.825 30.904 C 11.401 30.843 11.004 30.662 10.680 30.382 C 10.357 30.101 10.121 29.734 10.000 29.323 C 9.879 28.912 9.879 28.475 10.000 28.065 C 10.121 27.654 10.357 27.286 10.680 27.006 C 11.004 26.726 11.401 26.544 11.825 26.483 C 12.249 26.422 12.681 26.484 13.071 26.662 C 13.460 26.840 13.790 27.126 14.022 27.486 C 14.253 27.846 14.376 28.266 14.376 28.694 Z" fillRule="nonzero"></path><path transform="matrix(1,0,0,1,7.325398,2.767649)" stroke="#000000" fill="none" d="M 23.043 28.694 C 23.043 29.122 22.920 29.541 22.688 29.901 C 22.457 30.261 22.127 30.547 21.737 30.725 C 21.348 30.903 20.915 30.965 20.492 30.904 C 20.068 30.843 19.671 30.662 19.347 30.382 C 19.023 30.101 18.787 29.734 18.667 29.323 C 18.546 28.912 18.546 28.475 18.667 28.065 C 18.787 27.654 19.023 27.286 19.347 27.006 C 19.671 26.726 20.068 26.544 20.492 26.483 C 20.915 26.422 21.348 26.484 21.737 26.662 C 22.127 26.840 22.457 27.126 22.688 27.486 C 22.920 27.846 23.043 28.266 23.043 28.694 Z" fillRule="nonzero"></path><path transform="matrix(1,0,0,1,7.325398,2.767649)" stroke="#000000" fill="none" d="M 31.710 28.694 C 31.710 29.122 31.586 29.541 31.355 29.901 C 31.124 30.261 30.793 30.547 30.404 30.725 C 30.015 30.903 29.582 30.965 29.158 30.904 C 28.735 30.843 28.337 30.662 28.014 30.382 C 27.690 30.101 27.454 29.734 27.333 29.323 C 27.213 28.912 27.213 28.475 27.333 28.065 C 27.454 27.654 27.690 27.286 28.014 27.006 C 28.337 26.726 28.735 26.544 29.158 26.483 C 29.582 26.422 30.015 26.484 30.404 26.662 C 30.793 26.840 31.124 27.126 31.355 27.486 C 31.586 27.846 31.710 28.266 31.710 28.694 Z" fillRule="nonzero"></path><path transform="matrix(1,0,0,1,7.325398,2.767649)" stroke="#000000" fill="none" d="M 18.710 20.452 C 18.710 20.880 18.586 21.299 18.355 21.660 C 18.124 22.020 17.793 22.306 17.404 22.484 C 17.015 22.662 16.582 22.724 16.158 22.663 C 15.735 22.602 15.337 22.420 15.014 22.140 C 14.690 21.860 14.454 21.492 14.333 21.081 C 14.213 20.671 14.213 20.234 14.333 19.823 C 14.454 19.412 14.690 19.045 15.014 18.764 C 15.337 18.484 15.735 18.303 16.158 18.242 C 16.582 18.181 17.015 18.243 17.404 18.421 C 17.793 18.599 18.124 18.885 18.355 19.245 C 18.586 19.605 18.710 20.024 18.710 20.452 Z" fillRule="nonzero"></path><path transform="matrix(1,0,0,1,7.325398,2.767649)" stroke="#000000" fill="none" d="M 27.376 20.452 C 27.376 20.880 27.253 21.299 27.022 21.660 C 26.790 22.020 26.460 22.306 26.071 22.484 C 25.681 22.662 25.249 22.724 24.825 22.663 C 24.401 22.602 24.004 22.420 23.680 22.140 C 23.357 21.860 23.121 21.492 23.000 21.081 C 22.879 20.671 22.879 20.234 23.000 19.823 C 23.121 19.412 23.357 19.045 23.680 18.764 C 24.004 18.484 24.401 18.303 24.825 18.242 C 25.249 18.181 25.681 18.243 26.071 18.421 C 26.460 18.599 26.790 18.885 27.022 19.245 C 27.253 19.605 27.376 20.024 27.376 20.452 Z" fillRule="nonzero"></path><path transform="matrix(1,0,0,1,7.325398,2.767649)" stroke="#000000" fill="none" d="M 14.376 12.211 C 14.376 12.639 14.253 13.058 14.022 13.418 C 13.790 13.778 13.460 14.064 13.071 14.242 C 12.681 14.420 12.249 14.482 11.825 14.421 C 11.401 14.360 11.004 14.179 10.680 13.898 C 10.357 13.618 10.121 13.251 10.000 12.840 C 9.879 12.429 9.879 11.992 10.000 11.581 C 10.121 11.171 10.357 10.803 10.680 10.523 C 11.004 10.242 11.401 10.061 11.825 10.000 C 12.249 9.939 12.681 10.001 13.071 10.179 C 13.460 10.357 13.790 10.643 14.022 11.003 C 14.253 11.363 14.376 11.782 14.376 12.211 Z" fillRule="nonzero"></path><path transform="matrix(1,0,0,1,7.325398,2.767649)" stroke="#000000" fill="none" d="M 23.043 12.211 C 23.043 12.639 22.920 13.058 22.688 13.418 C 22.457 13.778 22.127 14.064 21.737 14.242 C 21.348 14.420 20.915 14.482 20.492 14.421 C 20.068 14.360 19.671 14.179 19.347 13.898 C 19.023 13.618 18.787 13.251 18.667 12.840 C 18.546 12.429 18.546 11.992 18.667 11.581 C 18.787 11.171 19.023 10.803 19.347 10.523 C 19.671 10.242 20.068 10.061 20.492 10.000 C 20.915 9.939 21.348 10.001 21.737 10.179 C 22.127 10.357 22.457 10.643 22.688 11.003 C 22.920 11.363 23.043 11.782 23.043 12.211 Z" fillRule="nonzero"></path><path transform="matrix(1,0,0,1,7.325398,2.767649)" stroke="#000000" fill="none" d="M 31.710 12.211 C 31.710 12.639 31.586 13.058 31.355 13.418 C 31.124 13.778 30.793 14.064 30.404 14.242 C 30.015 14.420 29.582 14.482 29.158 14.421 C 28.735 14.360 28.337 14.179 28.014 13.898 C 27.690 13.618 27.454 13.251 27.333 12.840 C 27.213 12.429 27.213 11.992 27.333 11.581 C 27.454 11.171 27.690 10.803 28.014 10.523 C 28.337 10.242 28.735 10.061 29.158 10.000 C 29.582 9.939 30.015 10.001 30.404 10.179 C 30.793 10.357 31.124 10.643 31.355 11.003 C 31.586 11.363 31.710 11.782 31.710 12.211 Z" fillRule="nonzero"></path></svg>