<?xml version="1.0" encoding="UTF-8"?>
<svg height="123.30mm" viewBox="0.0 0.0 222.60 123.30" width="222.60mm" xmlns="http://www.w3.org/2000/svg" xmlns:cc="http://creativecommons.org/ns#" xmlns:dc="http://purl.org/dc/elements/1.1/" xmlns:inkscape="http://www.inkscape.org/namespaces/inkscape" xmlns:rdf="http://www.w3.org/1999/02/22-rdf-syntax-ns#" xmlns:svg="http://www.w3.org/2000/svg" xmlns:xlink="http://www.w3.org/1999/xlink">
<!--
ClosedBox - Fully closed box


This box is more of a building block than a finished item.
Use a vector graphics program (like Inkscape) to add holes or adjust the base
plate.

See BasedBox for variant with a base.


Created with Boxes.py (https://festi.info/boxes.py)
Creation date: 2024-02-16 12:21:20
Command line (remove spaces between dashes): boxes ClosedBox - -x=90 - -y=30 - -h=20 - -outside=0
Url: http://www.festi.info/boxes.py/ClosedBox?FingerJoint_angle=90.0&FingerJoint_style=rectangular&FingerJoint_surroundingspaces=2.0&FingerJoint_bottom_lip=0.0&FingerJoint_edge_width=1.0&FingerJoint_extra_length=0.0&FingerJoint_finger=2.0&FingerJoint_play=0.0&FingerJoint_space=2.0&FingerJoint_width=1.0&x=90&y=30&h=20&outside=0&thickness=3.0&format=svg&tabs=0.0&qr_code=0&debug=0&labels=0&labels=1&reference=100&inner_corners=loop&burn=0.1&language=en&render=1
Url short: http://www.festi.info/boxes.py/ClosedBox?x=90&y=30&h=20&outside=0
SettingsUrl: http://www.festi.info/boxes.py/ClosedBox?FingerJoint_angle=90.0&FingerJoint_style=rectangular&FingerJoint_surroundingspaces=2.0&FingerJoint_bottom_lip=0.0&FingerJoint_edge_width=1.0&FingerJoint_extra_length=0.0&FingerJoint_finger=2.0&FingerJoint_play=0.0&FingerJoint_space=2.0&FingerJoint_width=1.0&x=90&y=30&h=20&outside=0&thickness=3.0&format=svg&tabs=0.0&qr_code=0&debug=0&labels=0&labels=1&reference=100&inner_corners=loop&burn=0.1&language=en
SettingsUrl short: http://www.festi.info/boxes.py/ClosedBox?x=90&y=30&h=20&outside=0
-->
<title>ClosedBox</title>
<metadata>
<rdf:RDF><cc:Work>
<dc:title>Box - ClosedBox</dc:title>
<dc:date>2024-02-16 12:21:20</dc:date>
<dc:source>http://www.festi.info/boxes.py/ClosedBox?FingerJoint_angle=90.0&amp;FingerJoint_style=rectangular&amp;FingerJoint_surroundingspaces=2.0&amp;FingerJoint_bottom_lip=0.0&amp;FingerJoint_edge_width=1.0&amp;FingerJoint_extra_length=0.0&amp;FingerJoint_finger=2.0&amp;FingerJoint_play=0.0&amp;FingerJoint_space=2.0&amp;FingerJoint_width=1.0&amp;x=90&amp;y=30&amp;h=20&amp;outside=0&amp;thickness=3.0&amp;format=svg&amp;tabs=0.0&amp;qr_code=0&amp;debug=0&amp;labels=0&amp;labels=1&amp;reference=100&amp;inner_corners=loop&amp;burn=0.1&amp;language=en&amp;render=1</dc:source>
<dc:source>http://www.festi.info/boxes.py/ClosedBox?x=90&amp;y=30&amp;h=20&amp;outside=0</dc:source>
<dc:description>Fully closed box

This box is more of a building block than a finished item.
Use a vector graphics program (like Inkscape) to add holes or adjust the base
plate.

See BasedBox for variant with a base.

Created with Boxes.py (https://festi.info/boxes.py)
Command line: boxes ClosedBox --FingerJoint_angle=90.0 --FingerJoint_style=rectangular --FingerJoint_surroundingspaces=2.0 --FingerJoint_bottom_lip=0.0 --FingerJoint_edge_width=1.0 --FingerJoint_extra_length=0.0 --FingerJoint_finger=2.0 --FingerJoint_play=0.0 --FingerJoint_space=2.0 --FingerJoint_width=1.0 --x=90 --y=30 --h=20 --outside=0 --thickness=3.0 --format=svg --tabs=0.0 --qr_code=0 --debug=0 --labels=0 --labels=1 --reference=100 --inner_corners=loop --burn=0.1
Command line short: boxes ClosedBox --x=90 --y=30 --h=20 --outside=0
Url: http://www.festi.info/boxes.py/ClosedBox?FingerJoint_angle=90.0&amp;FingerJoint_style=rectangular&amp;FingerJoint_surroundingspaces=2.0&amp;FingerJoint_bottom_lip=0.0&amp;FingerJoint_edge_width=1.0&amp;FingerJoint_extra_length=0.0&amp;FingerJoint_finger=2.0&amp;FingerJoint_play=0.0&amp;FingerJoint_space=2.0&amp;FingerJoint_width=1.0&amp;x=90&amp;y=30&amp;h=20&amp;outside=0&amp;thickness=3.0&amp;format=svg&amp;tabs=0.0&amp;qr_code=0&amp;debug=0&amp;labels=0&amp;labels=1&amp;reference=100&amp;inner_corners=loop&amp;burn=0.1&amp;language=en&amp;render=1
Url short: http://www.festi.info/boxes.py/ClosedBox?x=90&amp;y=30&amp;h=20&amp;outside=0
SettingsUrl: http://www.festi.info/boxes.py/ClosedBox?FingerJoint_angle=90.0&amp;FingerJoint_style=rectangular&amp;FingerJoint_surroundingspaces=2.0&amp;FingerJoint_bottom_lip=0.0&amp;FingerJoint_edge_width=1.0&amp;FingerJoint_extra_length=0.0&amp;FingerJoint_finger=2.0&amp;FingerJoint_play=0.0&amp;FingerJoint_space=2.0&amp;FingerJoint_width=1.0&amp;x=90&amp;y=30&amp;h=20&amp;outside=0&amp;thickness=3.0&amp;format=svg&amp;tabs=0.0&amp;qr_code=0&amp;debug=0&amp;labels=0&amp;labels=1&amp;reference=100&amp;inner_corners=loop&amp;burn=0.1&amp;language=en
SettingsUrl short: http://www.festi.info/boxes.py/ClosedBox?x=90&amp;y=30&amp;h=20&amp;outside=0
</dc:description>
</cc:Work></rdf:RDF></metadata>
<g id="p-0" style="fill:none;stroke-linecap:round;stroke-linejoin:round;">
  <path d="M 18.800 113.300 H 118.800 V 103.300 H 18.800 V 113.300 Z" stroke="rgb(0,0,0)" stroke-width="0.20"/>
  <text dominant-baseline="hanging" font-size="8px" style="font-family: sans-serif ; font-weight: normal; font-style: normal; fill: rgb(255,0,0)" text-anchor="middle" transform="matrix( 1.000 0.000 0.000 1.000 68.800 104.300 )">100.00mm, burn:0.10mm</text>
</g>
<g id="p-1" style="fill:none;stroke-linecap:round;stroke-linejoin:round;">
  <text dominant-baseline="hanging" font-size="4px" style="font-family: sans-serif ; font-weight: normal; font-style: normal; fill: rgb(255,0,0)" text-anchor="middle" transform="matrix( 1.000 0.000 0.000 1.000 66.800 86.600 )">Wall 1</text><path d="M 21.800 101.600 H 27.800 C 27.855 101.600 27.900 101.555 27.900 101.500 V 98.600 C 27.900 98.500 27.800 98.600 27.900 98.600 H 33.700 C 33.800 98.600 33.700 98.500 33.700 98.600 V 101.500 C 33.700 101.555 33.745 101.600 33.800 101.600 H 39.800 C 39.855 101.600 39.900 101.555 39.900 101.500 V 98.600 C 39.900 98.500 39.800 98.600 39.900 98.600 H 45.700 C 45.800 98.600 45.700 98.500 45.700 98.600 V 101.500 C 45.700 101.555 45.745 101.600 45.800 101.600 H 51.800 C 51.855 101.600 51.900 101.555 51.900 101.500 V 98.600 C 51.900 98.500 51.800 98.600 51.900 98.600 H 57.700 C 57.800 98.600 57.700 98.500 57.700 98.600 V 101.500 C 57.700 101.555 57.745 101.600 57.800 101.600 H 63.800 C 63.855 101.600 63.900 101.555 63.900 101.500 V 98.600 C 63.900 98.500 63.800 98.600 63.900 98.600 H 69.700 C 69.800 98.600 69.700 98.500 69.700 98.600 V 101.500 C 69.700 101.555 69.745 101.600 69.800 101.600 H 75.800 C 75.855 101.600 75.900 101.555 75.900 101.500 V 98.600 C 75.900 98.500 75.800 98.600 75.900 98.600 H 81.700 C 81.800 98.600 81.700 98.500 81.700 98.600 V 101.500 C 81.700 101.555 81.745 101.600 81.800 101.600 H 87.800 C 87.855 101.600 87.900 101.555 87.900 101.500 V 98.600 C 87.900 98.500 87.800 98.600 87.900 98.600 H 93.700 C 93.800 98.600 93.700 98.500 93.700 98.600 V 101.500 C 93.700 101.555 93.745 101.600 93.800 101.600 H 99.800 C 99.855 101.600 99.900 101.555 99.900 101.500 V 98.600 C 99.900 98.500 99.800 98.600 99.900 98.600 H 105.700 C 105.800 98.600 105.700 98.500 105.700 98.600 V 101.500 C 105.700 101.555 105.745 101.600 105.800 101.600 H 111.800 H 114.800 C 114.855 101.600 114.900 101.555 114.900 101.500 V 98.500 V 91.500 C 114.900 91.445 114.855 91.400 114.800 91.400 H 111.900 C 111.800 91.400 111.900 91.500 111.900 91.400 V 85.600 C 111.900 85.500 111.800 85.600 111.900 85.600 H 114.800 C 114.855 85.600 114.900 85.555 114.900 85.500 V 78.500 V 75.500 C 114.900 75.445 114.855 75.400 114.800 75.400 H 111.800 H 105.800 C 105.745 75.400 105.700 75.445 105.700 75.500 V 78.400 C 105.700 78.500 105.800 78.400 105.700 78.400 H 99.900 C 99.800 78.400 99.900 78.500 99.900 78.400 V 75.500 C 99.900 75.445 99.855 75.400 99.800 75.400 H 93.800 C 93.745 75.400 93.700 75.445 93.700 75.500 V 78.400 C 93.700 78.500 93.800 78.400 93.700 78.400 H 87.900 C 87.800 78.400 87.900 78.500 87.900 78.400 V 75.500 C 87.900 75.445 87.855 75.400 87.800 75.400 H 81.800 C 81.745 75.400 81.700 75.445 81.700 75.500 V 78.400 C 81.700 78.500 81.800 78.400 81.700 78.400 H 75.900 C 75.800 78.400 75.900 78.500 75.900 78.400 V 75.500 C 75.900 75.445 75.855 75.400 75.800 75.400 H 69.800 C 69.745 75.400 69.700 75.445 69.700 75.500 V 78.400 C 69.700 78.500 69.800 78.400 69.700 78.400 H 63.900 C 63.800 78.400 63.900 78.500 63.900 78.400 V 75.500 C 63.900 75.445 63.855 75.400 63.800 75.400 H 57.800 C 57.745 75.400 57.700 75.445 57.700 75.500 V 78.400 C 57.700 78.500 57.800 78.400 57.700 78.400 H 51.900 C 51.800 78.400 51.900 78.500 51.900 78.400 V 75.500 C 51.900 75.445 51.855 75.400 51.800 75.400 H 45.800 C 45.745 75.400 45.700 75.445 45.700 75.500 V 78.400 C 45.700 78.500 45.800 78.400 45.700 78.400 H 39.900 C 39.800 78.400 39.900 78.500 39.900 78.400 V 75.500 C 39.900 75.445 39.855 75.400 39.800 75.400 H 33.800 C 33.745 75.400 33.700 75.445 33.700 75.500 V 78.400 C 33.700 78.500 33.800 78.400 33.700 78.400 H 27.900 C 27.800 78.400 27.900 78.500 27.900 78.400 V 75.500 C 27.900 75.445 27.855 75.400 27.800 75.400 H 21.800 H 18.800 C 18.745 75.400 18.700 75.445 18.700 75.500 V 78.500 V 85.500 C 18.700 85.555 18.745 85.600 18.800 85.600 H 21.700 C 21.800 85.600 21.700 85.500 21.700 85.600 V 91.400 C 21.700 91.500 21.800 91.400 21.700 91.400 H 18.800 C 18.745 91.400 18.700 91.445 18.700 91.500 V 98.500 V 101.500 C 18.700 101.555 18.745 101.600 18.800 101.600 H 21.800" stroke="rgb(0,0,0)" stroke-width="0.20"/>
</g>
<g id="p-2" style="fill:none;stroke-linecap:round;stroke-linejoin:round;">
  <text dominant-baseline="hanging" font-size="4px" style="font-family: sans-serif ; font-weight: normal; font-style: normal; fill: rgb(255,0,0)" text-anchor="middle" transform="matrix( 1.000 0.000 0.000 1.000 134.500 86.600 )">Wall 2</text><path d="M 119.500 101.600 H 125.500 C 125.555 101.600 125.600 101.555 125.600 101.500 V 98.600 C 125.600 98.500 125.500 98.600 125.600 98.600 H 131.400 C 131.500 98.600 131.400 98.500 131.400 98.600 V 101.500 C 131.400 101.555 131.445 101.600 131.500 101.600 H 137.500 C 137.555 101.600 137.600 101.555 137.600 101.500 V 98.600 C 137.600 98.500 137.500 98.600 137.600 98.600 H 143.400 C 143.500 98.600 143.400 98.500 143.400 98.600 V 101.500 C 143.400 101.555 143.445 101.600 143.500 101.600 H 149.500 C 149.555 101.600 149.600 101.555 149.600 101.500 V 98.500 V 91.600 C 149.600 91.500 149.500 91.600 149.600 91.600 H 152.500 C 152.555 91.600 152.600 91.555 152.600 91.500 V 85.500 C 152.600 85.445 152.555 85.400 152.500 85.400 H 149.600 C 149.500 85.400 149.600 85.500 149.600 85.400 V 78.500 V 75.500 C 149.600 75.445 149.555 75.400 149.500 75.400 H 143.500 C 143.445 75.400 143.400 75.445 143.400 75.500 V 78.400 C 143.400 78.500 143.500 78.400 143.400 78.400 H 137.600 C 137.500 78.400 137.600 78.500 137.600 78.400 V 75.500 C 137.600 75.445 137.555 75.400 137.500 75.400 H 131.500 C 131.445 75.400 131.400 75.445 131.400 75.500 V 78.400 C 131.400 78.500 131.500 78.400 131.400 78.400 H 125.600 C 125.500 78.400 125.600 78.500 125.600 78.400 V 75.500 C 125.600 75.445 125.555 75.400 125.500 75.400 H 119.500 C 119.445 75.400 119.400 75.445 119.400 75.500 V 78.500 V 85.400 C 119.400 85.500 119.500 85.400 119.400 85.400 H 116.500 C 116.445 85.400 116.400 85.445 116.400 85.500 V 91.500 C 116.400 91.555 116.445 91.600 116.500 91.600 H 119.400 C 119.500 91.600 119.400 91.500 119.400 91.600 V 98.500 V 101.500 C 119.400 101.555 119.445 101.600 119.500 101.600" stroke="rgb(0,0,0)" stroke-width="0.20"/>
</g>
<g id="p-3" style="fill:none;stroke-linecap:round;stroke-linejoin:round;">
  <text dominant-baseline="hanging" font-size="4px" style="font-family: sans-serif ; font-weight: normal; font-style: normal; fill: rgb(255,0,0)" text-anchor="middle" transform="matrix( 1.000 0.000 0.000 1.000 134.500 58.900 )">Wall 4</text><path d="M 119.500 73.900 H 125.500 C 125.555 73.900 125.600 73.855 125.600 73.800 V 70.900 C 125.600 70.800 125.500 70.900 125.600 70.900 H 131.400 C 131.500 70.900 131.400 70.800 131.400 70.900 V 73.800 C 131.400 73.855 131.445 73.900 131.500 73.900 H 137.500 C 137.555 73.900 137.600 73.855 137.600 73.800 V 70.900 C 137.600 70.800 137.500 70.900 137.600 70.900 H 143.400 C 143.500 70.900 143.400 70.800 143.400 70.900 V 73.800 C 143.400 73.855 143.445 73.900 143.500 73.900 H 149.500 C 149.555 73.900 149.600 73.855 149.600 73.800 V 70.800 V 63.900 C 149.600 63.800 149.500 63.900 149.600 63.900 H 152.500 C 152.555 63.900 152.600 63.855 152.600 63.800 V 57.800 C 152.600 57.745 152.555 57.700 152.500 57.700 H 149.600 C 149.500 57.700 149.600 57.800 149.600 57.700 V 50.800 V 47.800 C 149.600 47.745 149.555 47.700 149.500 47.700 H 143.500 C 143.445 47.700 143.400 47.745 143.400 47.800 V 50.700 C 143.400 50.800 143.500 50.700 143.400 50.700 H 137.600 C 137.500 50.700 137.600 50.800 137.600 50.700 V 47.800 C 137.600 47.745 137.555 47.700 137.500 47.700 H 131.500 C 131.445 47.700 131.400 47.745 131.400 47.800 V 50.700 C 131.400 50.800 131.500 50.700 131.400 50.700 H 125.600 C 125.500 50.700 125.600 50.800 125.600 50.700 V 47.800 C 125.600 47.745 125.555 47.700 125.500 47.700 H 119.500 C 119.445 47.700 119.400 47.745 119.400 47.800 V 50.800 V 57.700 C 119.400 57.800 119.500 57.700 119.400 57.700 H 116.500 C 116.445 57.700 116.400 57.745 116.400 57.800 V 63.800 C 116.400 63.855 116.445 63.900 116.500 63.900 H 119.400 C 119.500 63.900 119.400 63.800 119.400 63.900 V 70.800 V 73.800 C 119.400 73.855 119.445 73.900 119.500 73.900" stroke="rgb(0,0,0)" stroke-width="0.20"/>
</g>
<g id="p-4" style="fill:none;stroke-linecap:round;stroke-linejoin:round;">
  <text dominant-baseline="hanging" font-size="4px" style="font-family: sans-serif ; font-weight: normal; font-style: normal; fill: rgb(255,0,0)" text-anchor="middle" transform="matrix( 1.000 0.000 0.000 1.000 66.800 58.900 )">Wall 3</text><path d="M 21.800 73.900 H 27.800 C 27.855 73.900 27.900 73.855 27.900 73.800 V 70.900 C 27.900 70.800 27.800 70.900 27.900 70.900 H 33.700 C 33.800 70.900 33.700 70.800 33.700 70.900 V 73.800 C 33.700 73.855 33.745 73.900 33.800 73.900 H 39.800 C 39.855 73.900 39.900 73.855 39.900 73.800 V 70.900 C 39.900 70.800 39.800 70.900 39.900 70.900 H 45.700 C 45.800 70.900 45.700 70.800 45.700 70.900 V 73.800 C 45.700 73.855 45.745 73.900 45.800 73.900 H 51.800 C 51.855 73.900 51.900 73.855 51.900 73.800 V 70.900 C 51.900 70.800 51.800 70.900 51.900 70.900 H 57.700 C 57.800 70.900 57.700 70.800 57.700 70.900 V 73.800 C 57.700 73.855 57.745 73.900 57.800 73.900 H 63.800 C 63.855 73.900 63.900 73.855 63.900 73.800 V 70.900 C 63.900 70.800 63.800 70.900 63.900 70.900 H 69.700 C 69.800 70.900 69.700 70.800 69.700 70.900 V 73.800 C 69.700 73.855 69.745 73.900 69.800 73.900 H 75.800 C 75.855 73.900 75.900 73.855 75.900 73.800 V 70.900 C 75.900 70.800 75.800 70.900 75.900 70.900 H 81.700 C 81.800 70.900 81.700 70.800 81.700 70.900 V 73.800 C 81.700 73.855 81.745 73.900 81.800 73.900 H 87.800 C 87.855 73.900 87.900 73.855 87.900 73.800 V 70.900 C 87.900 70.800 87.800 70.900 87.900 70.900 H 93.700 C 93.800 70.900 93.700 70.800 93.700 70.900 V 73.800 C 93.700 73.855 93.745 73.900 93.800 73.900 H 99.800 C 99.855 73.900 99.900 73.855 99.900 73.800 V 70.900 C 99.900 70.800 99.800 70.900 99.900 70.900 H 105.700 C 105.800 70.900 105.700 70.800 105.700 70.900 V 73.800 C 105.700 73.855 105.745 73.900 105.800 73.900 H 111.800 H 114.800 C 114.855 73.900 114.900 73.855 114.900 73.800 V 70.800 V 63.800 C 114.900 63.745 114.855 63.700 114.800 63.700 H 111.900 C 111.800 63.700 111.900 63.800 111.900 63.700 V 57.900 C 111.900 57.800 111.800 57.900 111.900 57.900 H 114.800 C 114.855 57.900 114.900 57.855 114.900 57.800 V 50.800 V 47.800 C 114.900 47.745 114.855 47.700 114.800 47.700 H 111.800 H 105.800 C 105.745 47.700 105.700 47.745 105.700 47.800 V 50.700 C 105.700 50.800 105.800 50.700 105.700 50.700 H 99.900 C 99.800 50.700 99.900 50.800 99.900 50.700 V 47.800 C 99.900 47.745 99.855 47.700 99.800 47.700 H 93.800 C 93.745 47.700 93.700 47.745 93.700 47.800 V 50.700 C 93.700 50.800 93.800 50.700 93.700 50.700 H 87.900 C 87.800 50.700 87.900 50.800 87.900 50.700 V 47.800 C 87.900 47.745 87.855 47.700 87.800 47.700 H 81.800 C 81.745 47.700 81.700 47.745 81.700 47.800 V 50.700 C 81.700 50.800 81.800 50.700 81.700 50.700 H 75.900 C 75.800 50.700 75.900 50.800 75.900 50.700 V 47.800 C 75.900 47.745 75.855 47.700 75.800 47.700 H 69.800 C 69.745 47.700 69.700 47.745 69.700 47.800 V 50.700 C 69.700 50.800 69.800 50.700 69.700 50.700 H 63.900 C 63.800 50.700 63.900 50.800 63.900 50.700 V 47.800 C 63.900 47.745 63.855 47.700 63.800 47.700 H 57.800 C 57.745 47.700 57.700 47.745 57.700 47.800 V 50.700 C 57.700 50.800 57.800 50.700 57.700 50.700 H 51.900 C 51.800 50.700 51.900 50.800 51.900 50.700 V 47.800 C 51.900 47.745 51.855 47.700 51.800 47.700 H 45.800 C 45.745 47.700 45.700 47.745 45.700 47.800 V 50.700 C 45.700 50.800 45.800 50.700 45.700 50.700 H 39.900 C 39.800 50.700 39.900 50.800 39.900 50.700 V 47.800 C 39.900 47.745 39.855 47.700 39.800 47.700 H 33.800 C 33.745 47.700 33.700 47.745 33.700 47.800 V 50.700 C 33.700 50.800 33.800 50.700 33.700 50.700 H 27.900 C 27.800 50.700 27.900 50.800 27.900 50.700 V 47.800 C 27.900 47.745 27.855 47.700 27.800 47.700 H 21.800 H 18.800 C 18.745 47.700 18.700 47.745 18.700 47.800 V 50.800 V 57.800 C 18.700 57.855 18.745 57.900 18.800 57.900 H 21.700 C 21.800 57.900 21.700 57.800 21.700 57.900 V 63.700 C 21.700 63.800 21.800 63.700 21.700 63.700 H 18.800 C 18.745 63.700 18.700 63.745 18.700 63.800 V 70.800 V 73.800 C 18.700 73.855 18.745 73.900 18.800 73.900 H 21.800" stroke="rgb(0,0,0)" stroke-width="0.20"/>
</g>
<g id="p-5" style="fill:none;stroke-linecap:round;stroke-linejoin:round;">
  <text dominant-baseline="hanging" font-size="4px" style="font-family: sans-serif ; font-weight: normal; font-style: normal; fill: rgb(255,0,0)" text-anchor="middle" transform="matrix( 1.000 0.000 0.000 1.000 66.800 26.200 )">Top</text><path d="M 21.800 43.200 H 27.700 C 27.800 43.200 27.700 43.100 27.700 43.200 V 46.100 C 27.700 46.155 27.745 46.200 27.800 46.200 H 33.800 C 33.855 46.200 33.900 46.155 33.900 46.100 V 43.200 C 33.900 43.100 33.800 43.200 33.900 43.200 H 39.700 C 39.800 43.200 39.700 43.100 39.700 43.200 V 46.100 C 39.700 46.155 39.745 46.200 39.800 46.200 H 45.800 C 45.855 46.200 45.900 46.155 45.900 46.100 V 43.200 C 45.900 43.100 45.800 43.200 45.900 43.200 H 51.700 C 51.800 43.200 51.700 43.100 51.700 43.200 V 46.100 C 51.700 46.155 51.745 46.200 51.800 46.200 H 57.800 C 57.855 46.200 57.900 46.155 57.900 46.100 V 43.200 C 57.900 43.100 57.800 43.200 57.900 43.200 H 63.700 C 63.800 43.200 63.700 43.100 63.700 43.200 V 46.100 C 63.700 46.155 63.745 46.200 63.800 46.200 H 69.800 C 69.855 46.200 69.900 46.155 69.900 46.100 V 43.200 C 69.900 43.100 69.800 43.200 69.900 43.200 H 75.700 C 75.800 43.200 75.700 43.100 75.700 43.200 V 46.100 C 75.700 46.155 75.745 46.200 75.800 46.200 H 81.800 C 81.855 46.200 81.900 46.155 81.900 46.100 V 43.200 C 81.900 43.100 81.800 43.200 81.900 43.200 H 87.700 C 87.800 43.200 87.700 43.100 87.700 43.200 V 46.100 C 87.700 46.155 87.745 46.200 87.800 46.200 H 93.800 C 93.855 46.200 93.900 46.155 93.900 46.100 V 43.200 C 93.900 43.100 93.800 43.200 93.900 43.200 H 99.700 C 99.800 43.200 99.700 43.100 99.700 43.200 V 46.100 C 99.700 46.155 99.745 46.200 99.800 46.200 H 105.800 C 105.855 46.200 105.900 46.155 105.900 46.100 V 43.200 C 105.900 43.100 105.800 43.200 105.900 43.200 H 111.800 C 111.855 43.200 111.900 43.155 111.900 43.100 V 37.200 C 111.900 37.100 111.800 37.200 111.900 37.200 H 114.800 C 114.855 37.200 114.900 37.155 114.900 37.100 V 31.100 C 114.900 31.045 114.855 31.000 114.800 31.000 H 111.900 C 111.800 31.000 111.900 31.100 111.900 31.000 V 25.200 C 111.900 25.100 111.800 25.200 111.900 25.200 H 114.800 C 114.855 25.200 114.900 25.155 114.900 25.100 V 19.100 C 114.900 19.045 114.855 19.000 114.800 19.000 H 111.900 C 111.800 19.000 111.900 19.100 111.900 19.000 V 13.100 C 111.900 13.045 111.855 13.000 111.800 13.000 H 105.900 C 105.800 13.000 105.900 13.100 105.900 13.000 V 10.100 C 105.900 10.045 105.855 10.000 105.800 10.000 H 99.800 C 99.745 10.000 99.700 10.045 99.700 10.100 V 13.000 C 99.700 13.100 99.800 13.000 99.700 13.000 H 93.900 C 93.800 13.000 93.900 13.100 93.900 13.000 V 10.100 C 93.900 10.045 93.855 10.000 93.800 10.000 H 87.800 C 87.745 10.000 87.700 10.045 87.700 10.100 V 13.000 C 87.700 13.100 87.800 13.000 87.700 13.000 H 81.900 C 81.800 13.000 81.900 13.100 81.900 13.000 V 10.100 C 81.900 10.045 81.855 10.000 81.800 10.000 H 75.800 C 75.745 10.000 75.700 10.045 75.700 10.100 V 13.000 C 75.700 13.100 75.800 13.000 75.700 13.000 H 69.900 C 69.800 13.000 69.900 13.100 69.900 13.000 V 10.100 C 69.900 10.045 69.855 10.000 69.800 10.000 H 63.800 C 63.745 10.000 63.700 10.045 63.700 10.100 V 13.000 C 63.700 13.100 63.800 13.000 63.700 13.000 H 57.900 C 57.800 13.000 57.900 13.100 57.900 13.000 V 10.100 C 57.900 10.045 57.855 10.000 57.800 10.000 H 51.800 C 51.745 10.000 51.700 10.045 51.700 10.100 V 13.000 C 51.700 13.100 51.800 13.000 51.700 13.000 H 45.900 C 45.800 13.000 45.900 13.100 45.900 13.000 V 10.100 C 45.900 10.045 45.855 10.000 45.800 10.000 H 39.800 C 39.745 10.000 39.700 10.045 39.700 10.100 V 13.000 C 39.700 13.100 39.800 13.000 39.700 13.000 H 33.900 C 33.800 13.000 33.900 13.100 33.900 13.000 V 10.100 C 33.900 10.045 33.855 10.000 33.800 10.000 H 27.800 C 27.745 10.000 27.700 10.045 27.700 10.100 V 13.000 C 27.700 13.100 27.800 13.000 27.700 13.000 H 21.800 C 21.745 13.000 21.700 13.045 21.700 13.100 V 19.000 C 21.700 19.100 21.800 19.000 21.700 19.000 H 18.800 C 18.745 19.000 18.700 19.045 18.700 19.100 V 25.100 C 18.700 25.155 18.745 25.200 18.800 25.200 H 21.700 C 21.800 25.200 21.700 25.100 21.700 25.200 V 31.000 C 21.700 31.100 21.800 31.000 21.700 31.000 H 18.800 C 18.745 31.000 18.700 31.045 18.700 31.100 V 37.100 C 18.700 37.155 18.745 37.200 18.800 37.200 H 21.700 C 21.800 37.200 21.700 37.100 21.700 37.200 V 43.100 C 21.700 43.155 21.745 43.200 21.800 43.200" stroke="rgb(0,0,0)" stroke-width="0.20"/>
</g>
<g id="p-6" style="fill:none;stroke-linecap:round;stroke-linejoin:round;">
  <text dominant-baseline="hanging" font-size="4px" style="font-family: sans-serif ; font-weight: normal; font-style: normal; fill: rgb(255,0,0)" text-anchor="middle" transform="matrix( 1.000 0.000 0.000 1.000 164.500 26.200 )">Bottom</text><path d="M 119.500 43.200 H 125.400 C 125.500 43.200 125.400 43.100 125.400 43.200 V 46.100 C 125.400 46.155 125.445 46.200 125.500 46.200 H 131.500 C 131.555 46.200 131.600 46.155 131.600 46.100 V 43.200 C 131.600 43.100 131.500 43.200 131.600 43.200 H 137.400 C 137.500 43.200 137.400 43.100 137.400 43.200 V 46.100 C 137.400 46.155 137.445 46.200 137.500 46.200 H 143.500 C 143.555 46.200 143.600 46.155 143.600 46.100 V 43.200 C 143.600 43.100 143.500 43.200 143.600 43.200 H 149.400 C 149.500 43.200 149.400 43.100 149.400 43.200 V 46.100 C 149.400 46.155 149.445 46.200 149.500 46.200 H 155.500 C 155.555 46.200 155.600 46.155 155.600 46.100 V 43.200 C 155.600 43.100 155.500 43.200 155.600 43.200 H 161.400 C 161.500 43.200 161.400 43.100 161.400 43.200 V 46.100 C 161.400 46.155 161.445 46.200 161.500 46.200 H 167.500 C 167.555 46.200 167.600 46.155 167.600 46.100 V 43.200 C 167.600 43.100 167.500 43.200 167.600 43.200 H 173.400 C 173.500 43.200 173.400 43.100 173.400 43.200 V 46.100 C 173.400 46.155 173.445 46.200 173.500 46.200 H 179.500 C 179.555 46.200 179.600 46.155 179.600 46.100 V 43.200 C 179.600 43.100 179.500 43.200 179.600 43.200 H 185.400 C 185.500 43.200 185.400 43.100 185.400 43.200 V 46.100 C 185.400 46.155 185.445 46.200 185.500 46.200 H 191.500 C 191.555 46.200 191.600 46.155 191.600 46.100 V 43.200 C 191.600 43.100 191.500 43.200 191.600 43.200 H 197.400 C 197.500 43.200 197.400 43.100 197.400 43.200 V 46.100 C 197.400 46.155 197.445 46.200 197.500 46.200 H 203.500 C 203.555 46.200 203.600 46.155 203.600 46.100 V 43.200 C 203.600 43.100 203.500 43.200 203.600 43.200 H 209.500 C 209.555 43.200 209.600 43.155 209.600 43.100 V 37.200 C 209.600 37.100 209.500 37.200 209.600 37.200 H 212.500 C 212.555 37.200 212.600 37.155 212.600 37.100 V 31.100 C 212.600 31.045 212.555 31.000 212.500 31.000 H 209.600 C 209.500 31.000 209.600 31.100 209.600 31.000 V 25.200 C 209.600 25.100 209.500 25.200 209.600 25.200 H 212.500 C 212.555 25.200 212.600 25.155 212.600 25.100 V 19.100 C 212.600 19.045 212.555 19.000 212.500 19.000 H 209.600 C 209.500 19.000 209.600 19.100 209.600 19.000 V 13.100 C 209.600 13.045 209.555 13.000 209.500 13.000 H 203.600 C 203.500 13.000 203.600 13.100 203.600 13.000 V 10.100 C 203.600 10.045 203.555 10.000 203.500 10.000 H 197.500 C 197.445 10.000 197.400 10.045 197.400 10.100 V 13.000 C 197.400 13.100 197.500 13.000 197.400 13.000 H 191.600 C 191.500 13.000 191.600 13.100 191.600 13.000 V 10.100 C 191.600 10.045 191.555 10.000 191.500 10.000 H 185.500 C 185.445 10.000 185.400 10.045 185.400 10.100 V 13.000 C 185.400 13.100 185.500 13.000 185.400 13.000 H 179.600 C 179.500 13.000 179.600 13.100 179.600 13.000 V 10.100 C 179.600 10.045 179.555 10.000 179.500 10.000 H 173.500 C 173.445 10.000 173.400 10.045 173.400 10.100 V 13.000 C 173.400 13.100 173.500 13.000 173.400 13.000 H 167.600 C 167.500 13.000 167.600 13.100 167.600 13.000 V 10.100 C 167.600 10.045 167.555 10.000 167.500 10.000 H 161.500 C 161.445 10.000 161.400 10.045 161.400 10.100 V 13.000 C 161.400 13.100 161.500 13.000 161.400 13.000 H 155.600 C 155.500 13.000 155.600 13.100 155.600 13.000 V 10.100 C 155.600 10.045 155.555 10.000 155.500 10.000 H 149.500 C 149.445 10.000 149.400 10.045 149.400 10.100 V 13.000 C 149.400 13.100 149.500 13.000 149.400 13.000 H 143.600 C 143.500 13.000 143.600 13.100 143.600 13.000 V 10.100 C 143.600 10.045 143.555 10.000 143.500 10.000 H 137.500 C 137.445 10.000 137.400 10.045 137.400 10.100 V 13.000 C 137.400 13.100 137.500 13.000 137.400 13.000 H 131.600 C 131.500 13.000 131.600 13.100 131.600 13.000 V 10.100 C 131.600 10.045 131.555 10.000 131.500 10.000 H 125.500 C 125.445 10.000 125.400 10.045 125.400 10.100 V 13.000 C 125.400 13.100 125.500 13.000 125.400 13.000 H 119.500 C 119.445 13.000 119.400 13.045 119.400 13.100 V 19.000 C 119.400 19.100 119.500 19.000 119.400 19.000 H 116.500 C 116.445 19.000 116.400 19.045 116.400 19.100 V 25.100 C 116.400 25.155 116.445 25.200 116.500 25.200 H 119.400 C 119.500 25.200 119.400 25.100 119.400 25.200 V 31.000 C 119.400 31.100 119.500 31.000 119.400 31.000 H 116.500 C 116.445 31.000 116.400 31.045 116.400 31.100 V 37.100 C 116.400 37.155 116.445 37.200 116.500 37.200 H 119.400 C 119.500 37.200 119.400 37.100 119.400 37.200 V 43.100 C 119.400 43.155 119.445 43.200 119.500 43.200" stroke="rgb(0,0,0)" stroke-width="0.20"/>
</g>
</svg>