<?xml version="1.0" encoding="UTF-8"?>
<svg height="158.30mm" viewBox="0.0 0.0 137.60 158.30" width="137.60mm" xmlns="http://www.w3.org/2000/svg" xmlns:cc="http://creativecommons.org/ns#" xmlns:dc="http://purl.org/dc/elements/1.1/" xmlns:inkscape="http://www.inkscape.org/namespaces/inkscape" xmlns:rdf="http://www.w3.org/1999/02/22-rdf-syntax-ns#" xmlns:svg="http://www.w3.org/2000/svg" xmlns:xlink="http://www.w3.org/1999/xlink">
<!--
ClosedBox - Fully closed box


This box is more of a building block than a finished item.
Use a vector graphics program (like Inkscape) to add holes or adjust the base
plate.

See BasedBox for variant with a base.


Created with Boxes.py (https://festi.info/boxes.py)
Creation date: 2024-02-16 13:53:38
Command line (remove spaces between dashes): boxes ClosedBox - -x=45 - -y=45 - -h=30 - -outside=0
Url: http://www.festi.info/boxes.py/ClosedBox?FingerJoint_angle=90.0&FingerJoint_style=rectangular&FingerJoint_surroundingspaces=2.0&FingerJoint_bottom_lip=0.0&FingerJoint_edge_width=1.0&FingerJoint_extra_length=0.0&FingerJoint_finger=2.0&FingerJoint_play=0.0&FingerJoint_space=2.0&FingerJoint_width=1.0&x=45&y=45&h=30&outside=0&thickness=3.0&format=svg&tabs=0.0&qr_code=0&debug=0&labels=0&labels=1&reference=100&inner_corners=loop&burn=0.1&language=en&render=1
Url short: http://www.festi.info/boxes.py/ClosedBox?x=45&y=45&h=30&outside=0
SettingsUrl: http://www.festi.info/boxes.py/ClosedBox?FingerJoint_angle=90.0&FingerJoint_style=rectangular&FingerJoint_surroundingspaces=2.0&FingerJoint_bottom_lip=0.0&FingerJoint_edge_width=1.0&FingerJoint_extra_length=0.0&FingerJoint_finger=2.0&FingerJoint_play=0.0&FingerJoint_space=2.0&FingerJoint_width=1.0&x=45&y=45&h=30&outside=0&thickness=3.0&format=svg&tabs=0.0&qr_code=0&debug=0&labels=0&labels=1&reference=100&inner_corners=loop&burn=0.1&language=en
SettingsUrl short: http://www.festi.info/boxes.py/ClosedBox?x=45&y=45&h=30&outside=0
-->
<title>ClosedBox</title>
<metadata>
<rdf:RDF><cc:Work>
<dc:title>Box - ClosedBox</dc:title>
<dc:date>2024-02-16 13:53:38</dc:date>
<dc:source>http://www.festi.info/boxes.py/ClosedBox?FingerJoint_angle=90.0&amp;FingerJoint_style=rectangular&amp;FingerJoint_surroundingspaces=2.0&amp;FingerJoint_bottom_lip=0.0&amp;FingerJoint_edge_width=1.0&amp;FingerJoint_extra_length=0.0&amp;FingerJoint_finger=2.0&amp;FingerJoint_play=0.0&amp;FingerJoint_space=2.0&amp;FingerJoint_width=1.0&amp;x=45&amp;y=45&amp;h=30&amp;outside=0&amp;thickness=3.0&amp;format=svg&amp;tabs=0.0&amp;qr_code=0&amp;debug=0&amp;labels=0&amp;labels=1&amp;reference=100&amp;inner_corners=loop&amp;burn=0.1&amp;language=en&amp;render=1</dc:source>
<dc:source>http://www.festi.info/boxes.py/ClosedBox?x=45&amp;y=45&amp;h=30&amp;outside=0</dc:source>
<dc:description>Fully closed box

This box is more of a building block than a finished item.
Use a vector graphics program (like Inkscape) to add holes or adjust the base
plate.

See BasedBox for variant with a base.

Created with Boxes.py (https://festi.info/boxes.py)
Command line: boxes ClosedBox --FingerJoint_angle=90.0 --FingerJoint_style=rectangular --FingerJoint_surroundingspaces=2.0 --FingerJoint_bottom_lip=0.0 --FingerJoint_edge_width=1.0 --FingerJoint_extra_length=0.0 --FingerJoint_finger=2.0 --FingerJoint_play=0.0 --FingerJoint_space=2.0 --FingerJoint_width=1.0 --x=45 --y=45 --h=30 --outside=0 --thickness=3.0 --format=svg --tabs=0.0 --qr_code=0 --debug=0 --labels=0 --labels=1 --reference=100 --inner_corners=loop --burn=0.1
Command line short: boxes ClosedBox --x=45 --y=45 --h=30 --outside=0
Url: http://www.festi.info/boxes.py/ClosedBox?FingerJoint_angle=90.0&amp;FingerJoint_style=rectangular&amp;FingerJoint_surroundingspaces=2.0&amp;FingerJoint_bottom_lip=0.0&amp;FingerJoint_edge_width=1.0&amp;FingerJoint_extra_length=0.0&amp;FingerJoint_finger=2.0&amp;FingerJoint_play=0.0&amp;FingerJoint_space=2.0&amp;FingerJoint_width=1.0&amp;x=45&amp;y=45&amp;h=30&amp;outside=0&amp;thickness=3.0&amp;format=svg&amp;tabs=0.0&amp;qr_code=0&amp;debug=0&amp;labels=0&amp;labels=1&amp;reference=100&amp;inner_corners=loop&amp;burn=0.1&amp;language=en&amp;render=1
Url short: http://www.festi.info/boxes.py/ClosedBox?x=45&amp;y=45&amp;h=30&amp;outside=0
SettingsUrl: http://www.festi.info/boxes.py/ClosedBox?FingerJoint_angle=90.0&amp;FingerJoint_style=rectangular&amp;FingerJoint_surroundingspaces=2.0&amp;FingerJoint_bottom_lip=0.0&amp;FingerJoint_edge_width=1.0&amp;FingerJoint_extra_length=0.0&amp;FingerJoint_finger=2.0&amp;FingerJoint_play=0.0&amp;FingerJoint_space=2.0&amp;FingerJoint_width=1.0&amp;x=45&amp;y=45&amp;h=30&amp;outside=0&amp;thickness=3.0&amp;format=svg&amp;tabs=0.0&amp;qr_code=0&amp;debug=0&amp;labels=0&amp;labels=1&amp;reference=100&amp;inner_corners=loop&amp;burn=0.1&amp;language=en
SettingsUrl short: http://www.festi.info/boxes.py/ClosedBox?x=45&amp;y=45&amp;h=30&amp;outside=0
</dc:description>
</cc:Work></rdf:RDF></metadata>
<g id="p-0" style="fill:none;stroke-linecap:round;stroke-linejoin:round;">
  <path d="M 18.800 148.300 H 118.800 V 138.300 H 18.800 V 148.300 Z" stroke="rgb(0,0,0)" stroke-width="0.20"/>
  <text dominant-baseline="hanging" font-size="8px" style="font-family: sans-serif ; font-weight: normal; font-style: normal; fill: rgb(255,0,0)" text-anchor="middle" transform="matrix( 1.000 0.000 0.000 1.000 68.800 139.300 )">100.00mm, burn:0.10mm</text>
</g>
<g id="p-1" style="fill:none;stroke-linecap:round;stroke-linejoin:round;">
  <text dominant-baseline="hanging" font-size="4px" style="font-family: sans-serif ; font-weight: normal; font-style: normal; fill: rgb(255,0,0)" text-anchor="middle" transform="matrix( 1.000 0.000 0.000 1.000 44.300 116.600 )">Wall 1</text><path d="M 21.800 136.600 H 29.300 C 29.355 136.600 29.400 136.555 29.400 136.500 V 133.600 C 29.400 133.500 29.300 133.600 29.400 133.600 H 35.200 C 35.300 133.600 35.200 133.500 35.200 133.600 V 136.500 C 35.200 136.555 35.245 136.600 35.300 136.600 H 41.300 C 41.355 136.600 41.400 136.555 41.400 136.500 V 133.600 C 41.400 133.500 41.300 133.600 41.400 133.600 H 47.200 C 47.300 133.600 47.200 133.500 47.200 133.600 V 136.500 C 47.200 136.555 47.245 136.600 47.300 136.600 H 53.300 C 53.355 136.600 53.400 136.555 53.400 136.500 V 133.600 C 53.400 133.500 53.300 133.600 53.400 133.600 H 59.200 C 59.300 133.600 59.200 133.500 59.200 133.600 V 136.500 C 59.200 136.555 59.245 136.600 59.300 136.600 H 66.800 H 69.800 C 69.855 136.600 69.900 136.555 69.900 136.500 V 133.500 V 127.500 C 69.900 127.445 69.855 127.400 69.800 127.400 H 66.900 C 66.800 127.400 66.900 127.500 66.900 127.400 V 121.600 C 66.900 121.500 66.800 121.600 66.900 121.600 H 69.800 C 69.855 121.600 69.900 121.555 69.900 121.500 V 115.500 C 69.900 115.445 69.855 115.400 69.800 115.400 H 66.900 C 66.800 115.400 66.900 115.500 66.900 115.400 V 109.600 C 66.900 109.500 66.800 109.600 66.900 109.600 H 69.800 C 69.855 109.600 69.900 109.555 69.900 109.500 V 103.500 V 100.500 C 69.900 100.445 69.855 100.400 69.800 100.400 H 66.800 H 59.300 C 59.245 100.400 59.200 100.445 59.200 100.500 V 103.400 C 59.200 103.500 59.300 103.400 59.200 103.400 H 53.400 C 53.300 103.400 53.400 103.500 53.400 103.400 V 100.500 C 53.400 100.445 53.355 100.400 53.300 100.400 H 47.300 C 47.245 100.400 47.200 100.445 47.200 100.500 V 103.400 C 47.200 103.500 47.300 103.400 47.200 103.400 H 41.400 C 41.300 103.400 41.400 103.500 41.400 103.400 V 100.500 C 41.400 100.445 41.355 100.400 41.300 100.400 H 35.300 C 35.245 100.400 35.200 100.445 35.200 100.500 V 103.400 C 35.200 103.500 35.300 103.400 35.200 103.400 H 29.400 C 29.300 103.400 29.400 103.500 29.400 103.400 V 100.500 C 29.400 100.445 29.355 100.400 29.300 100.400 H 21.800 H 18.800 C 18.745 100.400 18.700 100.445 18.700 100.500 V 103.500 V 109.500 C 18.700 109.555 18.745 109.600 18.800 109.600 H 21.700 C 21.800 109.600 21.700 109.500 21.700 109.600 V 115.400 C 21.700 115.500 21.800 115.400 21.700 115.400 H 18.800 C 18.745 115.400 18.700 115.445 18.700 115.500 V 121.500 C 18.700 121.555 18.745 121.600 18.800 121.600 H 21.700 C 21.800 121.600 21.700 121.500 21.700 121.600 V 127.400 C 21.700 127.500 21.800 127.400 21.700 127.400 H 18.800 C 18.745 127.400 18.700 127.445 18.700 127.500 V 133.500 V 136.500 C 18.700 136.555 18.745 136.600 18.800 136.600 H 21.800" stroke="rgb(0,0,0)" stroke-width="0.20"/>
</g>
<g id="p-2" style="fill:none;stroke-linecap:round;stroke-linejoin:round;">
  <text dominant-baseline="hanging" font-size="4px" style="font-family: sans-serif ; font-weight: normal; font-style: normal; fill: rgb(255,0,0)" text-anchor="middle" transform="matrix( 1.000 0.000 0.000 1.000 97.000 116.600 )">Wall 2</text><path d="M 74.500 136.600 H 82.000 C 82.055 136.600 82.100 136.555 82.100 136.500 V 133.600 C 82.100 133.500 82.000 133.600 82.100 133.600 H 87.900 C 88.000 133.600 87.900 133.500 87.900 133.600 V 136.500 C 87.900 136.555 87.945 136.600 88.000 136.600 H 94.000 C 94.055 136.600 94.100 136.555 94.100 136.500 V 133.600 C 94.100 133.500 94.000 133.600 94.100 133.600 H 99.900 C 100.000 133.600 99.900 133.500 99.900 133.600 V 136.500 C 99.900 136.555 99.945 136.600 100.000 136.600 H 106.000 C 106.055 136.600 106.100 136.555 106.100 136.500 V 133.600 C 106.100 133.500 106.000 133.600 106.100 133.600 H 111.900 C 112.000 133.600 111.900 133.500 111.900 133.600 V 136.500 C 111.900 136.555 111.945 136.600 112.000 136.600 H 119.500 C 119.555 136.600 119.600 136.555 119.600 136.500 V 133.500 V 127.600 C 119.600 127.500 119.500 127.600 119.600 127.600 H 122.500 C 122.555 127.600 122.600 127.555 122.600 127.500 V 121.500 C 122.600 121.445 122.555 121.400 122.500 121.400 H 119.600 C 119.500 121.400 119.600 121.500 119.600 121.400 V 115.600 C 119.600 115.500 119.500 115.600 119.600 115.600 H 122.500 C 122.555 115.600 122.600 115.555 122.600 115.500 V 109.500 C 122.600 109.445 122.555 109.400 122.500 109.400 H 119.600 C 119.500 109.400 119.600 109.500 119.600 109.400 V 103.500 V 100.500 C 119.600 100.445 119.555 100.400 119.500 100.400 H 112.000 C 111.945 100.400 111.900 100.445 111.900 100.500 V 103.400 C 111.900 103.500 112.000 103.400 111.900 103.400 H 106.100 C 106.000 103.400 106.100 103.500 106.100 103.400 V 100.500 C 106.100 100.445 106.055 100.400 106.000 100.400 H 100.000 C 99.945 100.400 99.900 100.445 99.900 100.500 V 103.400 C 99.900 103.500 100.000 103.400 99.900 103.400 H 94.100 C 94.000 103.400 94.100 103.500 94.100 103.400 V 100.500 C 94.100 100.445 94.055 100.400 94.000 100.400 H 88.000 C 87.945 100.400 87.900 100.445 87.900 100.500 V 103.400 C 87.900 103.500 88.000 103.400 87.900 103.400 H 82.100 C 82.000 103.400 82.100 103.500 82.100 103.400 V 100.500 C 82.100 100.445 82.055 100.400 82.000 100.400 H 74.500 C 74.445 100.400 74.400 100.445 74.400 100.500 V 103.500 V 109.400 C 74.400 109.500 74.500 109.400 74.400 109.400 H 71.500 C 71.445 109.400 71.400 109.445 71.400 109.500 V 115.500 C 71.400 115.555 71.445 115.600 71.500 115.600 H 74.400 C 74.500 115.600 74.400 115.500 74.400 115.600 V 121.400 C 74.400 121.500 74.500 121.400 74.400 121.400 H 71.500 C 71.445 121.400 71.400 121.445 71.400 121.500 V 127.500 C 71.400 127.555 71.445 127.600 71.500 127.600 H 74.400 C 74.500 127.600 74.400 127.500 74.400 127.600 V 133.500 V 136.500 C 74.400 136.555 74.445 136.600 74.500 136.600" stroke="rgb(0,0,0)" stroke-width="0.20"/>
</g>
<g id="p-3" style="fill:none;stroke-linecap:round;stroke-linejoin:round;">
  <text dominant-baseline="hanging" font-size="4px" style="font-family: sans-serif ; font-weight: normal; font-style: normal; fill: rgb(255,0,0)" text-anchor="middle" transform="matrix( 1.000 0.000 0.000 1.000 97.000 78.900 )">Wall 4</text><path d="M 74.500 98.900 H 82.000 C 82.055 98.900 82.100 98.855 82.100 98.800 V 95.900 C 82.100 95.800 82.000 95.900 82.100 95.900 H 87.900 C 88.000 95.900 87.900 95.800 87.900 95.900 V 98.800 C 87.900 98.855 87.945 98.900 88.000 98.900 H 94.000 C 94.055 98.900 94.100 98.855 94.100 98.800 V 95.900 C 94.100 95.800 94.000 95.900 94.100 95.900 H 99.900 C 100.000 95.900 99.900 95.800 99.900 95.900 V 98.800 C 99.900 98.855 99.945 98.900 100.000 98.900 H 106.000 C 106.055 98.900 106.100 98.855 106.100 98.800 V 95.900 C 106.100 95.800 106.000 95.900 106.100 95.900 H 111.900 C 112.000 95.900 111.900 95.800 111.900 95.900 V 98.800 C 111.900 98.855 111.945 98.900 112.000 98.900 H 119.500 C 119.555 98.900 119.600 98.855 119.600 98.800 V 95.800 V 89.900 C 119.600 89.800 119.500 89.900 119.600 89.900 H 122.500 C 122.555 89.900 122.600 89.855 122.600 89.800 V 83.800 C 122.600 83.745 122.555 83.700 122.500 83.700 H 119.600 C 119.500 83.700 119.600 83.800 119.600 83.700 V 77.900 C 119.600 77.800 119.500 77.900 119.600 77.900 H 122.500 C 122.555 77.900 122.600 77.855 122.600 77.800 V 71.800 C 122.600 71.745 122.555 71.700 122.500 71.700 H 119.600 C 119.500 71.700 119.600 71.800 119.600 71.700 V 65.800 V 62.800 C 119.600 62.745 119.555 62.700 119.500 62.700 H 112.000 C 111.945 62.700 111.900 62.745 111.900 62.800 V 65.700 C 111.900 65.800 112.000 65.700 111.900 65.700 H 106.100 C 106.000 65.700 106.100 65.800 106.100 65.700 V 62.800 C 106.100 62.745 106.055 62.700 106.000 62.700 H 100.000 C 99.945 62.700 99.900 62.745 99.900 62.800 V 65.700 C 99.900 65.800 100.000 65.700 99.900 65.700 H 94.100 C 94.000 65.700 94.100 65.800 94.100 65.700 V 62.800 C 94.100 62.745 94.055 62.700 94.000 62.700 H 88.000 C 87.945 62.700 87.900 62.745 87.900 62.800 V 65.700 C 87.900 65.800 88.000 65.700 87.900 65.700 H 82.100 C 82.000 65.700 82.100 65.800 82.100 65.700 V 62.800 C 82.100 62.745 82.055 62.700 82.000 62.700 H 74.500 C 74.445 62.700 74.400 62.745 74.400 62.800 V 65.800 V 71.700 C 74.400 71.800 74.500 71.700 74.400 71.700 H 71.500 C 71.445 71.700 71.400 71.745 71.400 71.800 V 77.800 C 71.400 77.855 71.445 77.900 71.500 77.900 H 74.400 C 74.500 77.900 74.400 77.800 74.400 77.900 V 83.700 C 74.400 83.800 74.500 83.700 74.400 83.700 H 71.500 C 71.445 83.700 71.400 83.745 71.400 83.800 V 89.800 C 71.400 89.855 71.445 89.900 71.500 89.900 H 74.400 C 74.500 89.900 74.400 89.800 74.400 89.900 V 95.800 V 98.800 C 74.400 98.855 74.445 98.900 74.500 98.900" stroke="rgb(0,0,0)" stroke-width="0.20"/>
</g>
<g id="p-4" style="fill:none;stroke-linecap:round;stroke-linejoin:round;">
  <text dominant-baseline="hanging" font-size="4px" style="font-family: sans-serif ; font-weight: normal; font-style: normal; fill: rgb(255,0,0)" text-anchor="middle" transform="matrix( 1.000 0.000 0.000 1.000 44.300 78.900 )">Wall 3</text><path d="M 21.800 98.900 H 29.300 C 29.355 98.900 29.400 98.855 29.400 98.800 V 95.900 C 29.400 95.800 29.300 95.900 29.400 95.900 H 35.200 C 35.300 95.900 35.200 95.800 35.200 95.900 V 98.800 C 35.200 98.855 35.245 98.900 35.300 98.900 H 41.300 C 41.355 98.900 41.400 98.855 41.400 98.800 V 95.900 C 41.400 95.800 41.300 95.900 41.400 95.900 H 47.200 C 47.300 95.900 47.200 95.800 47.200 95.900 V 98.800 C 47.200 98.855 47.245 98.900 47.300 98.900 H 53.300 C 53.355 98.900 53.400 98.855 53.400 98.800 V 95.900 C 53.400 95.800 53.300 95.900 53.400 95.900 H 59.200 C 59.300 95.900 59.200 95.800 59.200 95.900 V 98.800 C 59.200 98.855 59.245 98.900 59.300 98.900 H 66.800 H 69.800 C 69.855 98.900 69.900 98.855 69.900 98.800 V 95.800 V 89.800 C 69.900 89.745 69.855 89.700 69.800 89.700 H 66.900 C 66.800 89.700 66.900 89.800 66.900 89.700 V 83.900 C 66.900 83.800 66.800 83.900 66.900 83.900 H 69.800 C 69.855 83.900 69.900 83.855 69.900 83.800 V 77.800 C 69.900 77.745 69.855 77.700 69.800 77.700 H 66.900 C 66.800 77.700 66.900 77.800 66.900 77.700 V 71.900 C 66.900 71.800 66.800 71.900 66.900 71.900 H 69.800 C 69.855 71.900 69.900 71.855 69.900 71.800 V 65.800 V 62.800 C 69.900 62.745 69.855 62.700 69.800 62.700 H 66.800 H 59.300 C 59.245 62.700 59.200 62.745 59.200 62.800 V 65.700 C 59.200 65.800 59.300 65.700 59.200 65.700 H 53.400 C 53.300 65.700 53.400 65.800 53.400 65.700 V 62.800 C 53.400 62.745 53.355 62.700 53.300 62.700 H 47.300 C 47.245 62.700 47.200 62.745 47.200 62.800 V 65.700 C 47.200 65.800 47.300 65.700 47.200 65.700 H 41.400 C 41.300 65.700 41.400 65.800 41.400 65.700 V 62.800 C 41.400 62.745 41.355 62.700 41.300 62.700 H 35.300 C 35.245 62.700 35.200 62.745 35.200 62.800 V 65.700 C 35.200 65.800 35.300 65.700 35.200 65.700 H 29.400 C 29.300 65.700 29.400 65.800 29.400 65.700 V 62.800 C 29.400 62.745 29.355 62.700 29.300 62.700 H 21.800 H 18.800 C 18.745 62.700 18.700 62.745 18.700 62.800 V 65.800 V 71.800 C 18.700 71.855 18.745 71.900 18.800 71.900 H 21.700 C 21.800 71.900 21.700 71.800 21.700 71.900 V 77.700 C 21.700 77.800 21.800 77.700 21.700 77.700 H 18.800 C 18.745 77.700 18.700 77.745 18.700 77.800 V 83.800 C 18.700 83.855 18.745 83.900 18.800 83.900 H 21.700 C 21.800 83.900 21.700 83.800 21.700 83.900 V 89.700 C 21.700 89.800 21.800 89.700 21.700 89.700 H 18.800 C 18.745 89.700 18.700 89.745 18.700 89.800 V 95.800 V 98.800 C 18.700 98.855 18.745 98.900 18.800 98.900 H 21.800" stroke="rgb(0,0,0)" stroke-width="0.20"/>
</g>
<g id="p-5" style="fill:none;stroke-linecap:round;stroke-linejoin:round;">
  <text dominant-baseline="hanging" font-size="4px" style="font-family: sans-serif ; font-weight: normal; font-style: normal; fill: rgb(255,0,0)" text-anchor="middle" transform="matrix( 1.000 0.000 0.000 1.000 44.300 33.700 )">Top</text><path d="M 21.800 58.200 H 29.200 C 29.300 58.200 29.200 58.100 29.200 58.200 V 61.100 C 29.200 61.155 29.245 61.200 29.300 61.200 H 35.300 C 35.355 61.200 35.400 61.155 35.400 61.100 V 58.200 C 35.400 58.100 35.300 58.200 35.400 58.200 H 41.200 C 41.300 58.200 41.200 58.100 41.200 58.200 V 61.100 C 41.200 61.155 41.245 61.200 41.300 61.200 H 47.300 C 47.355 61.200 47.400 61.155 47.400 61.100 V 58.200 C 47.400 58.100 47.300 58.200 47.400 58.200 H 53.200 C 53.300 58.200 53.200 58.100 53.200 58.200 V 61.100 C 53.200 61.155 53.245 61.200 53.300 61.200 H 59.300 C 59.355 61.200 59.400 61.155 59.400 61.100 V 58.200 C 59.400 58.100 59.300 58.200 59.400 58.200 H 66.800 C 66.855 58.200 66.900 58.155 66.900 58.100 V 50.700 C 66.900 50.600 66.800 50.700 66.900 50.700 H 69.800 C 69.855 50.700 69.900 50.655 69.900 50.600 V 44.600 C 69.900 44.545 69.855 44.500 69.800 44.500 H 66.900 C 66.800 44.500 66.900 44.600 66.900 44.500 V 38.700 C 66.900 38.600 66.800 38.700 66.900 38.700 H 69.800 C 69.855 38.700 69.900 38.655 69.900 38.600 V 32.600 C 69.900 32.545 69.855 32.500 69.800 32.500 H 66.900 C 66.800 32.500 66.900 32.600 66.900 32.500 V 26.700 C 66.900 26.600 66.800 26.700 66.900 26.700 H 69.800 C 69.855 26.700 69.900 26.655 69.900 26.600 V 20.600 C 69.900 20.545 69.855 20.500 69.800 20.500 H 66.900 C 66.800 20.500 66.900 20.600 66.900 20.500 V 13.100 C 66.900 13.045 66.855 13.000 66.800 13.000 H 59.400 C 59.300 13.000 59.400 13.100 59.400 13.000 V 10.100 C 59.400 10.045 59.355 10.000 59.300 10.000 H 53.300 C 53.245 10.000 53.200 10.045 53.200 10.100 V 13.000 C 53.200 13.100 53.300 13.000 53.200 13.000 H 47.400 C 47.300 13.000 47.400 13.100 47.400 13.000 V 10.100 C 47.400 10.045 47.355 10.000 47.300 10.000 H 41.300 C 41.245 10.000 41.200 10.045 41.200 10.100 V 13.000 C 41.200 13.100 41.300 13.000 41.200 13.000 H 35.400 C 35.300 13.000 35.400 13.100 35.400 13.000 V 10.100 C 35.400 10.045 35.355 10.000 35.300 10.000 H 29.300 C 29.245 10.000 29.200 10.045 29.200 10.100 V 13.000 C 29.200 13.100 29.300 13.000 29.200 13.000 H 21.800 C 21.745 13.000 21.700 13.045 21.700 13.100 V 20.500 C 21.700 20.600 21.800 20.500 21.700 20.500 H 18.800 C 18.745 20.500 18.700 20.545 18.700 20.600 V 26.600 C 18.700 26.655 18.745 26.700 18.800 26.700 H 21.700 C 21.800 26.700 21.700 26.600 21.700 26.700 V 32.500 C 21.700 32.600 21.800 32.500 21.700 32.500 H 18.800 C 18.745 32.500 18.700 32.545 18.700 32.600 V 38.600 C 18.700 38.655 18.745 38.700 18.800 38.700 H 21.700 C 21.800 38.700 21.700 38.600 21.700 38.700 V 44.500 C 21.700 44.600 21.800 44.500 21.700 44.500 H 18.800 C 18.745 44.500 18.700 44.545 18.700 44.600 V 50.600 C 18.700 50.655 18.745 50.700 18.800 50.700 H 21.700 C 21.800 50.700 21.700 50.600 21.700 50.700 V 58.100 C 21.700 58.155 21.745 58.200 21.800 58.200" stroke="rgb(0,0,0)" stroke-width="0.20"/>
</g>
<g id="p-6" style="fill:none;stroke-linecap:round;stroke-linejoin:round;">
  <text dominant-baseline="hanging" font-size="4px" style="font-family: sans-serif ; font-weight: normal; font-style: normal; fill: rgb(255,0,0)" text-anchor="middle" transform="matrix( 1.000 0.000 0.000 1.000 97.000 33.700 )">Bottom</text><path d="M 74.500 58.200 H 81.900 C 82.000 58.200 81.900 58.100 81.900 58.200 V 61.100 C 81.900 61.155 81.945 61.200 82.000 61.200 H 88.000 C 88.055 61.200 88.100 61.155 88.100 61.100 V 58.200 C 88.100 58.100 88.000 58.200 88.100 58.200 H 93.900 C 94.000 58.200 93.900 58.100 93.900 58.200 V 61.100 C 93.900 61.155 93.945 61.200 94.000 61.200 H 100.000 C 100.055 61.200 100.100 61.155 100.100 61.100 V 58.200 C 100.100 58.100 100.000 58.200 100.100 58.200 H 105.900 C 106.000 58.200 105.900 58.100 105.900 58.200 V 61.100 C 105.900 61.155 105.945 61.200 106.000 61.200 H 112.000 C 112.055 61.200 112.100 61.155 112.100 61.100 V 58.200 C 112.100 58.100 112.000 58.200 112.100 58.200 H 119.500 C 119.555 58.200 119.600 58.155 119.600 58.100 V 50.700 C 119.600 50.600 119.500 50.700 119.600 50.700 H 122.500 C 122.555 50.700 122.600 50.655 122.600 50.600 V 44.600 C 122.600 44.545 122.555 44.500 122.500 44.500 H 119.600 C 119.500 44.500 119.600 44.600 119.600 44.500 V 38.700 C 119.600 38.600 119.500 38.700 119.600 38.700 H 122.500 C 122.555 38.700 122.600 38.655 122.600 38.600 V 32.600 C 122.600 32.545 122.555 32.500 122.500 32.500 H 119.600 C 119.500 32.500 119.600 32.600 119.600 32.500 V 26.700 C 119.600 26.600 119.500 26.700 119.600 26.700 H 122.500 C 122.555 26.700 122.600 26.655 122.600 26.600 V 20.600 C 122.600 20.545 122.555 20.500 122.500 20.500 H 119.600 C 119.500 20.500 119.600 20.600 119.600 20.500 V 13.100 C 119.600 13.045 119.555 13.000 119.500 13.000 H 112.100 C 112.000 13.000 112.100 13.100 112.100 13.000 V 10.100 C 112.100 10.045 112.055 10.000 112.000 10.000 H 106.000 C 105.945 10.000 105.900 10.045 105.900 10.100 V 13.000 C 105.900 13.100 106.000 13.000 105.900 13.000 H 100.100 C 100.000 13.000 100.100 13.100 100.100 13.000 V 10.100 C 100.100 10.045 100.055 10.000 100.000 10.000 H 94.000 C 93.945 10.000 93.900 10.045 93.900 10.100 V 13.000 C 93.900 13.100 94.000 13.000 93.900 13.000 H 88.100 C 88.000 13.000 88.100 13.100 88.100 13.000 V 10.100 C 88.100 10.045 88.055 10.000 88.000 10.000 H 82.000 C 81.945 10.000 81.900 10.045 81.900 10.100 V 13.000 C 81.900 13.100 82.000 13.000 81.900 13.000 H 74.500 C 74.445 13.000 74.400 13.045 74.400 13.100 V 20.500 C 74.400 20.600 74.500 20.500 74.400 20.500 H 71.500 C 71.445 20.500 71.400 20.545 71.400 20.600 V 26.600 C 71.400 26.655 71.445 26.700 71.500 26.700 H 74.400 C 74.500 26.700 74.400 26.600 74.400 26.700 V 32.500 C 74.400 32.600 74.500 32.500 74.400 32.500 H 71.500 C 71.445 32.500 71.400 32.545 71.400 32.600 V 38.600 C 71.400 38.655 71.445 38.700 71.500 38.700 H 74.400 C 74.500 38.700 74.400 38.600 74.400 38.700 V 44.500 C 74.400 44.600 74.500 44.500 74.400 44.500 H 71.500 C 71.445 44.500 71.400 44.545 71.400 44.600 V 50.600 C 71.400 50.655 71.445 50.700 71.500 50.700 H 74.400 C 74.500 50.700 74.400 50.600 74.400 50.700 V 58.100 C 74.400 58.155 74.445 58.200 74.500 58.200" stroke="rgb(0,0,0)" stroke-width="0.20"/>
</g>
</svg>