<?xml version="1.0" encoding="UTF-8"?>
<svg height="96.60mm" viewBox="0.0 0.0 133.90 96.60" width="133.90mm" xmlns="http://www.w3.org/2000/svg" xmlns:cc="http://creativecommons.org/ns#" xmlns:dc="http://purl.org/dc/elements/1.1/" xmlns:inkscape="http://www.inkscape.org/namespaces/inkscape" xmlns:rdf="http://www.w3.org/1999/02/22-rdf-syntax-ns#" xmlns:svg="http://www.w3.org/2000/svg" xmlns:xlink="http://www.w3.org/1999/xlink">
<!--
ClosedBox - Fully closed box


This box is more of a building block than a finished item.
Use a vector graphics program (like Inkscape) to add holes or adjust the base
plate.

See BasedBox for variant with a base.


Created with Boxes.py (https://festi.info/boxes.py)
Creation date: 2024-01-18 07:45:54
Command line (remove spaces between dashes): boxes ClosedBox - -x=50 - -y=35 - -h=10 - -outside=0 - -reference=0
Url: http://www.festi.info/boxes.py/ClosedBox?FingerJoint_angle=90.0&FingerJoint_style=rectangular&FingerJoint_surroundingspaces=2.0&FingerJoint_bottom_lip=0.0&FingerJoint_edge_width=1.0&FingerJoint_extra_length=0.0&FingerJoint_finger=2.0&FingerJoint_play=0.0&FingerJoint_space=2.0&FingerJoint_width=1.0&x=50&y=35&h=10&outside=0&thickness=3.0&format=svg&tabs=0.0&qr_code=0&debug=0&labels=0&labels=1&reference=0&inner_corners=loop&burn=0.1&language=en&render=1
Url short: http://www.festi.info/boxes.py/ClosedBox?x=50&y=35&h=10&outside=0&reference=0
SettingsUrl: http://www.festi.info/boxes.py/ClosedBox?FingerJoint_angle=90.0&FingerJoint_style=rectangular&FingerJoint_surroundingspaces=2.0&FingerJoint_bottom_lip=0.0&FingerJoint_edge_width=1.0&FingerJoint_extra_length=0.0&FingerJoint_finger=2.0&FingerJoint_play=0.0&FingerJoint_space=2.0&FingerJoint_width=1.0&x=50&y=35&h=10&outside=0&thickness=3.0&format=svg&tabs=0.0&qr_code=0&debug=0&labels=0&labels=1&reference=0&inner_corners=loop&burn=0.1&language=en
SettingsUrl short: http://www.festi.info/boxes.py/ClosedBox?x=50&y=35&h=10&outside=0&reference=0
-->
<title>ClosedBox</title>
<metadata>
<rdf:RDF><cc:Work>
<dc:title>Box - ClosedBox</dc:title>
<dc:date>2024-01-18 07:45:54</dc:date>
<dc:source>http://www.festi.info/boxes.py/ClosedBox?FingerJoint_angle=90.0&amp;FingerJoint_style=rectangular&amp;FingerJoint_surroundingspaces=2.0&amp;FingerJoint_bottom_lip=0.0&amp;FingerJoint_edge_width=1.0&amp;FingerJoint_extra_length=0.0&amp;FingerJoint_finger=2.0&amp;FingerJoint_play=0.0&amp;FingerJoint_space=2.0&amp;FingerJoint_width=1.0&amp;x=50&amp;y=35&amp;h=10&amp;outside=0&amp;thickness=3.0&amp;format=svg&amp;tabs=0.0&amp;qr_code=0&amp;debug=0&amp;labels=0&amp;labels=1&amp;reference=0&amp;inner_corners=loop&amp;burn=0.1&amp;language=en&amp;render=1</dc:source>
<dc:source>http://www.festi.info/boxes.py/ClosedBox?x=50&amp;y=35&amp;h=10&amp;outside=0&amp;reference=0</dc:source>
<dc:description>Fully closed box

This box is more of a building block than a finished item.
Use a vector graphics program (like Inkscape) to add holes or adjust the base
plate.

See BasedBox for variant with a base.

Created with Boxes.py (https://festi.info/boxes.py)
Command line: boxes ClosedBox --FingerJoint_angle=90.0 --FingerJoint_style=rectangular --FingerJoint_surroundingspaces=2.0 --FingerJoint_bottom_lip=0.0 --FingerJoint_edge_width=1.0 --FingerJoint_extra_length=0.0 --FingerJoint_finger=2.0 --FingerJoint_play=0.0 --FingerJoint_space=2.0 --FingerJoint_width=1.0 --x=50 --y=35 --h=10 --outside=0 --thickness=3.0 --format=svg --tabs=0.0 --qr_code=0 --debug=0 --labels=0 --labels=1 --reference=0 --inner_corners=loop --burn=0.1
Command line short: boxes ClosedBox --x=50 --y=35 --h=10 --outside=0 --reference=0
Url: http://www.festi.info/boxes.py/ClosedBox?FingerJoint_angle=90.0&amp;FingerJoint_style=rectangular&amp;FingerJoint_surroundingspaces=2.0&amp;FingerJoint_bottom_lip=0.0&amp;FingerJoint_edge_width=1.0&amp;FingerJoint_extra_length=0.0&amp;FingerJoint_finger=2.0&amp;FingerJoint_play=0.0&amp;FingerJoint_space=2.0&amp;FingerJoint_width=1.0&amp;x=50&amp;y=35&amp;h=10&amp;outside=0&amp;thickness=3.0&amp;format=svg&amp;tabs=0.0&amp;qr_code=0&amp;debug=0&amp;labels=0&amp;labels=1&amp;reference=0&amp;inner_corners=loop&amp;burn=0.1&amp;language=en&amp;render=1
Url short: http://www.festi.info/boxes.py/ClosedBox?x=50&amp;y=35&amp;h=10&amp;outside=0&amp;reference=0
SettingsUrl: http://www.festi.info/boxes.py/ClosedBox?FingerJoint_angle=90.0&amp;FingerJoint_style=rectangular&amp;FingerJoint_surroundingspaces=2.0&amp;FingerJoint_bottom_lip=0.0&amp;FingerJoint_edge_width=1.0&amp;FingerJoint_extra_length=0.0&amp;FingerJoint_finger=2.0&amp;FingerJoint_play=0.0&amp;FingerJoint_space=2.0&amp;FingerJoint_width=1.0&amp;x=50&amp;y=35&amp;h=10&amp;outside=0&amp;thickness=3.0&amp;format=svg&amp;tabs=0.0&amp;qr_code=0&amp;debug=0&amp;labels=0&amp;labels=1&amp;reference=0&amp;inner_corners=loop&amp;burn=0.1&amp;language=en
SettingsUrl short: http://www.festi.info/boxes.py/ClosedBox?x=50&amp;y=35&amp;h=10&amp;outside=0&amp;reference=0
</dc:description>
</cc:Work></rdf:RDF></metadata>
<g id="p-0" style="fill:none;stroke-linecap:round;stroke-linejoin:round;">
  <text dominant-baseline="hanging" font-size="4px" style="font-family: sans-serif ; font-weight: normal; font-style: normal; fill: rgb(255,0,0)" text-anchor="middle" transform="matrix( 1.000 0.000 0.000 1.000 38.100 76.600 )">Wall 1</text><path d="M 13.100 86.600 H 23.100 C 23.155 86.600 23.200 86.555 23.200 86.500 V 83.600 C 23.200 83.500 23.100 83.600 23.200 83.600 H 29.000 C 29.100 83.600 29.000 83.500 29.000 83.600 V 86.500 C 29.000 86.555 29.045 86.600 29.100 86.600 H 35.100 C 35.155 86.600 35.200 86.555 35.200 86.500 V 83.600 C 35.200 83.500 35.100 83.600 35.200 83.600 H 41.000 C 41.100 83.600 41.000 83.500 41.000 83.600 V 86.500 C 41.000 86.555 41.045 86.600 41.100 86.600 H 47.100 C 47.155 86.600 47.200 86.555 47.200 86.500 V 83.600 C 47.200 83.500 47.100 83.600 47.200 83.600 H 53.000 C 53.100 83.600 53.000 83.500 53.000 83.600 V 86.500 C 53.000 86.555 53.045 86.600 53.100 86.600 H 63.100 H 66.100 C 66.155 86.600 66.200 86.555 66.200 86.500 V 83.500 V 81.500 C 66.200 81.445 66.155 81.400 66.100 81.400 H 63.200 C 63.100 81.400 63.200 81.500 63.200 81.400 V 75.600 C 63.200 75.500 63.100 75.600 63.200 75.600 H 66.100 C 66.155 75.600 66.200 75.555 66.200 75.500 V 73.500 V 70.500 C 66.200 70.445 66.155 70.400 66.100 70.400 H 63.100 H 53.100 C 53.045 70.400 53.000 70.445 53.000 70.500 V 73.400 C 53.000 73.500 53.100 73.400 53.000 73.400 H 47.200 C 47.100 73.400 47.200 73.500 47.200 73.400 V 70.500 C 47.200 70.445 47.155 70.400 47.100 70.400 H 41.100 C 41.045 70.400 41.000 70.445 41.000 70.500 V 73.400 C 41.000 73.500 41.100 73.400 41.000 73.400 H 35.200 C 35.100 73.400 35.200 73.500 35.200 73.400 V 70.500 C 35.200 70.445 35.155 70.400 35.100 70.400 H 29.100 C 29.045 70.400 29.000 70.445 29.000 70.500 V 73.400 C 29.000 73.500 29.100 73.400 29.000 73.400 H 23.200 C 23.100 73.400 23.200 73.500 23.200 73.400 V 70.500 C 23.200 70.445 23.155 70.400 23.100 70.400 H 13.100 H 10.100 C 10.045 70.400 10.000 70.445 10.000 70.500 V 73.500 V 75.500 C 10.000 75.555 10.045 75.600 10.100 75.600 H 13.000 C 13.100 75.600 13.000 75.500 13.000 75.600 V 81.400 C 13.000 81.500 13.100 81.400 13.000 81.400 H 10.100 C 10.045 81.400 10.000 81.445 10.000 81.500 V 83.500 V 86.500 C 10.000 86.555 10.045 86.600 10.100 86.600 H 13.100" stroke="rgb(0,0,0)" stroke-width="0.20"/>
</g>
<g id="p-1" style="fill:none;stroke-linecap:round;stroke-linejoin:round;">
  <text dominant-baseline="hanging" font-size="4px" style="font-family: sans-serif ; font-weight: normal; font-style: normal; fill: rgb(255,0,0)" text-anchor="middle" transform="matrix( 1.000 0.000 0.000 1.000 88.300 76.600 )">Wall 2</text><path d="M 70.800 86.600 H 79.300 C 79.355 86.600 79.400 86.555 79.400 86.500 V 83.600 C 79.400 83.500 79.300 83.600 79.400 83.600 H 85.200 C 85.300 83.600 85.200 83.500 85.200 83.600 V 86.500 C 85.200 86.555 85.245 86.600 85.300 86.600 H 91.300 C 91.355 86.600 91.400 86.555 91.400 86.500 V 83.600 C 91.400 83.500 91.300 83.600 91.400 83.600 H 97.200 C 97.300 83.600 97.200 83.500 97.200 83.600 V 86.500 C 97.200 86.555 97.245 86.600 97.300 86.600 H 105.800 C 105.855 86.600 105.900 86.555 105.900 86.500 V 83.500 V 81.600 C 105.900 81.500 105.800 81.600 105.900 81.600 H 108.800 C 108.855 81.600 108.900 81.555 108.900 81.500 V 75.500 C 108.900 75.445 108.855 75.400 108.800 75.400 H 105.900 C 105.800 75.400 105.900 75.500 105.900 75.400 V 73.500 V 70.500 C 105.900 70.445 105.855 70.400 105.800 70.400 H 97.300 C 97.245 70.400 97.200 70.445 97.200 70.500 V 73.400 C 97.200 73.500 97.300 73.400 97.200 73.400 H 91.400 C 91.300 73.400 91.400 73.500 91.400 73.400 V 70.500 C 91.400 70.445 91.355 70.400 91.300 70.400 H 85.300 C 85.245 70.400 85.200 70.445 85.200 70.500 V 73.400 C 85.200 73.500 85.300 73.400 85.200 73.400 H 79.400 C 79.300 73.400 79.400 73.500 79.400 73.400 V 70.500 C 79.400 70.445 79.355 70.400 79.300 70.400 H 70.800 C 70.745 70.400 70.700 70.445 70.700 70.500 V 73.500 V 75.400 C 70.700 75.500 70.800 75.400 70.700 75.400 H 67.800 C 67.745 75.400 67.700 75.445 67.700 75.500 V 81.500 C 67.700 81.555 67.745 81.600 67.800 81.600 H 70.700 C 70.800 81.600 70.700 81.500 70.700 81.600 V 83.500 V 86.500 C 70.700 86.555 70.745 86.600 70.800 86.600" stroke="rgb(0,0,0)" stroke-width="0.20"/>
</g>
<g id="p-2" style="fill:none;stroke-linecap:round;stroke-linejoin:round;">
  <text dominant-baseline="hanging" font-size="4px" style="font-family: sans-serif ; font-weight: normal; font-style: normal; fill: rgb(255,0,0)" text-anchor="middle" transform="matrix( 1.000 0.000 0.000 1.000 88.300 58.900 )">Wall 4</text><path d="M 70.800 68.900 H 79.300 C 79.355 68.900 79.400 68.855 79.400 68.800 V 65.900 C 79.400 65.800 79.300 65.900 79.400 65.900 H 85.200 C 85.300 65.900 85.200 65.800 85.200 65.900 V 68.800 C 85.200 68.855 85.245 68.900 85.300 68.900 H 91.300 C 91.355 68.900 91.400 68.855 91.400 68.800 V 65.900 C 91.400 65.800 91.300 65.900 91.400 65.900 H 97.200 C 97.300 65.900 97.200 65.800 97.200 65.900 V 68.800 C 97.200 68.855 97.245 68.900 97.300 68.900 H 105.800 C 105.855 68.900 105.900 68.855 105.900 68.800 V 65.800 V 63.900 C 105.900 63.800 105.800 63.900 105.900 63.900 H 108.800 C 108.855 63.900 108.900 63.855 108.900 63.800 V 57.800 C 108.900 57.745 108.855 57.700 108.800 57.700 H 105.900 C 105.800 57.700 105.900 57.800 105.900 57.700 V 55.800 V 52.800 C 105.900 52.745 105.855 52.700 105.800 52.700 H 97.300 C 97.245 52.700 97.200 52.745 97.200 52.800 V 55.700 C 97.200 55.800 97.300 55.700 97.200 55.700 H 91.400 C 91.300 55.700 91.400 55.800 91.400 55.700 V 52.800 C 91.400 52.745 91.355 52.700 91.300 52.700 H 85.300 C 85.245 52.700 85.200 52.745 85.200 52.800 V 55.700 C 85.200 55.800 85.300 55.700 85.200 55.700 H 79.400 C 79.300 55.700 79.400 55.800 79.400 55.700 V 52.800 C 79.400 52.745 79.355 52.700 79.300 52.700 H 70.800 C 70.745 52.700 70.700 52.745 70.700 52.800 V 55.800 V 57.700 C 70.700 57.800 70.800 57.700 70.700 57.700 H 67.800 C 67.745 57.700 67.700 57.745 67.700 57.800 V 63.800 C 67.700 63.855 67.745 63.900 67.800 63.900 H 70.700 C 70.800 63.900 70.700 63.800 70.700 63.900 V 65.800 V 68.800 C 70.700 68.855 70.745 68.900 70.800 68.900" stroke="rgb(0,0,0)" stroke-width="0.20"/>
</g>
<g id="p-3" style="fill:none;stroke-linecap:round;stroke-linejoin:round;">
  <text dominant-baseline="hanging" font-size="4px" style="font-family: sans-serif ; font-weight: normal; font-style: normal; fill: rgb(255,0,0)" text-anchor="middle" transform="matrix( 1.000 0.000 0.000 1.000 38.100 58.900 )">Wall 3</text><path d="M 13.100 68.900 H 23.100 C 23.155 68.900 23.200 68.855 23.200 68.800 V 65.900 C 23.200 65.800 23.100 65.900 23.200 65.900 H 29.000 C 29.100 65.900 29.000 65.800 29.000 65.900 V 68.800 C 29.000 68.855 29.045 68.900 29.100 68.900 H 35.100 C 35.155 68.900 35.200 68.855 35.200 68.800 V 65.900 C 35.200 65.800 35.100 65.900 35.200 65.900 H 41.000 C 41.100 65.900 41.000 65.800 41.000 65.900 V 68.800 C 41.000 68.855 41.045 68.900 41.100 68.900 H 47.100 C 47.155 68.900 47.200 68.855 47.200 68.800 V 65.900 C 47.200 65.800 47.100 65.900 47.200 65.900 H 53.000 C 53.100 65.900 53.000 65.800 53.000 65.900 V 68.800 C 53.000 68.855 53.045 68.900 53.100 68.900 H 63.100 H 66.100 C 66.155 68.900 66.200 68.855 66.200 68.800 V 65.800 V 63.800 C 66.200 63.745 66.155 63.700 66.100 63.700 H 63.200 C 63.100 63.700 63.200 63.800 63.200 63.700 V 57.900 C 63.200 57.800 63.100 57.900 63.200 57.900 H 66.100 C 66.155 57.900 66.200 57.855 66.200 57.800 V 55.800 V 52.800 C 66.200 52.745 66.155 52.700 66.100 52.700 H 63.100 H 53.100 C 53.045 52.700 53.000 52.745 53.000 52.800 V 55.700 C 53.000 55.800 53.100 55.700 53.000 55.700 H 47.200 C 47.100 55.700 47.200 55.800 47.200 55.700 V 52.800 C 47.200 52.745 47.155 52.700 47.100 52.700 H 41.100 C 41.045 52.700 41.000 52.745 41.000 52.800 V 55.700 C 41.000 55.800 41.100 55.700 41.000 55.700 H 35.200 C 35.100 55.700 35.200 55.800 35.200 55.700 V 52.800 C 35.200 52.745 35.155 52.700 35.100 52.700 H 29.100 C 29.045 52.700 29.000 52.745 29.000 52.800 V 55.700 C 29.000 55.800 29.100 55.700 29.000 55.700 H 23.200 C 23.100 55.700 23.200 55.800 23.200 55.700 V 52.800 C 23.200 52.745 23.155 52.700 23.100 52.700 H 13.100 H 10.100 C 10.045 52.700 10.000 52.745 10.000 52.800 V 55.800 V 57.800 C 10.000 57.855 10.045 57.900 10.100 57.900 H 13.000 C 13.100 57.900 13.000 57.800 13.000 57.900 V 63.700 C 13.000 63.800 13.100 63.700 13.000 63.700 H 10.100 C 10.045 63.700 10.000 63.745 10.000 63.800 V 65.800 V 68.800 C 10.000 68.855 10.045 68.900 10.100 68.900 H 13.100" stroke="rgb(0,0,0)" stroke-width="0.20"/>
</g>
<g id="p-4" style="fill:none;stroke-linecap:round;stroke-linejoin:round;">
  <text dominant-baseline="hanging" font-size="4px" style="font-family: sans-serif ; font-weight: normal; font-style: normal; fill: rgb(255,0,0)" text-anchor="middle" transform="matrix( 1.000 0.000 0.000 1.000 38.100 28.700 )">Top</text><path d="M 13.100 48.200 H 23.000 C 23.100 48.200 23.000 48.100 23.000 48.200 V 51.100 C 23.000 51.155 23.045 51.200 23.100 51.200 H 29.100 C 29.155 51.200 29.200 51.155 29.200 51.100 V 48.200 C 29.200 48.100 29.100 48.200 29.200 48.200 H 35.000 C 35.100 48.200 35.000 48.100 35.000 48.200 V 51.100 C 35.000 51.155 35.045 51.200 35.100 51.200 H 41.100 C 41.155 51.200 41.200 51.155 41.200 51.100 V 48.200 C 41.200 48.100 41.100 48.200 41.200 48.200 H 47.000 C 47.100 48.200 47.000 48.100 47.000 48.200 V 51.100 C 47.000 51.155 47.045 51.200 47.100 51.200 H 53.100 C 53.155 51.200 53.200 51.155 53.200 51.100 V 48.200 C 53.200 48.100 53.100 48.200 53.200 48.200 H 63.100 C 63.155 48.200 63.200 48.155 63.200 48.100 V 39.700 C 63.200 39.600 63.100 39.700 63.200 39.700 H 66.100 C 66.155 39.700 66.200 39.655 66.200 39.600 V 33.600 C 66.200 33.545 66.155 33.500 66.100 33.500 H 63.200 C 63.100 33.500 63.200 33.600 63.200 33.500 V 27.700 C 63.200 27.600 63.100 27.700 63.200 27.700 H 66.100 C 66.155 27.700 66.200 27.655 66.200 27.600 V 21.600 C 66.200 21.545 66.155 21.500 66.100 21.500 H 63.200 C 63.100 21.500 63.200 21.600 63.200 21.500 V 13.100 C 63.200 13.045 63.155 13.000 63.100 13.000 H 53.200 C 53.100 13.000 53.200 13.100 53.200 13.000 V 10.100 C 53.200 10.045 53.155 10.000 53.100 10.000 H 47.100 C 47.045 10.000 47.000 10.045 47.000 10.100 V 13.000 C 47.000 13.100 47.100 13.000 47.000 13.000 H 41.200 C 41.100 13.000 41.200 13.100 41.200 13.000 V 10.100 C 41.200 10.045 41.155 10.000 41.100 10.000 H 35.100 C 35.045 10.000 35.000 10.045 35.000 10.100 V 13.000 C 35.000 13.100 35.100 13.000 35.000 13.000 H 29.200 C 29.100 13.000 29.200 13.100 29.200 13.000 V 10.100 C 29.200 10.045 29.155 10.000 29.100 10.000 H 23.100 C 23.045 10.000 23.000 10.045 23.000 10.100 V 13.000 C 23.000 13.100 23.100 13.000 23.000 13.000 H 13.100 C 13.045 13.000 13.000 13.045 13.000 13.100 V 21.500 C 13.000 21.600 13.100 21.500 13.000 21.500 H 10.100 C 10.045 21.500 10.000 21.545 10.000 21.600 V 27.600 C 10.000 27.655 10.045 27.700 10.100 27.700 H 13.000 C 13.100 27.700 13.000 27.600 13.000 27.700 V 33.500 C 13.000 33.600 13.100 33.500 13.000 33.500 H 10.100 C 10.045 33.500 10.000 33.545 10.000 33.600 V 39.600 C 10.000 39.655 10.045 39.700 10.100 39.700 H 13.000 C 13.100 39.700 13.000 39.600 13.000 39.700 V 48.100 C 13.000 48.155 13.045 48.200 13.100 48.200" stroke="rgb(0,0,0)" stroke-width="0.20"/>
</g>
<g id="p-5" style="fill:none;stroke-linecap:round;stroke-linejoin:round;">
  <text dominant-baseline="hanging" font-size="4px" style="font-family: sans-serif ; font-weight: normal; font-style: normal; fill: rgb(255,0,0)" text-anchor="middle" transform="matrix( 1.000 0.000 0.000 1.000 95.800 28.700 )">Bottom</text><path d="M 70.800 48.200 H 80.700 C 80.800 48.200 80.700 48.100 80.700 48.200 V 51.100 C 80.700 51.155 80.745 51.200 80.800 51.200 H 86.800 C 86.855 51.200 86.900 51.155 86.900 51.100 V 48.200 C 86.900 48.100 86.800 48.200 86.900 48.200 H 92.700 C 92.800 48.200 92.700 48.100 92.700 48.200 V 51.100 C 92.700 51.155 92.745 51.200 92.800 51.200 H 98.800 C 98.855 51.200 98.900 51.155 98.900 51.100 V 48.200 C 98.900 48.100 98.800 48.200 98.900 48.200 H 104.700 C 104.800 48.200 104.700 48.100 104.700 48.200 V 51.100 C 104.700 51.155 104.745 51.200 104.800 51.200 H 110.800 C 110.855 51.200 110.900 51.155 110.900 51.100 V 48.200 C 110.900 48.100 110.800 48.200 110.900 48.200 H 120.800 C 120.855 48.200 120.900 48.155 120.900 48.100 V 39.700 C 120.900 39.600 120.800 39.700 120.900 39.700 H 123.800 C 123.855 39.700 123.900 39.655 123.900 39.600 V 33.600 C 123.900 33.545 123.855 33.500 123.800 33.500 H 120.900 C 120.800 33.500 120.900 33.600 120.900 33.500 V 27.700 C 120.900 27.600 120.800 27.700 120.900 27.700 H 123.800 C 123.855 27.700 123.900 27.655 123.900 27.600 V 21.600 C 123.900 21.545 123.855 21.500 123.800 21.500 H 120.900 C 120.800 21.500 120.900 21.600 120.900 21.500 V 13.100 C 120.900 13.045 120.855 13.000 120.800 13.000 H 110.900 C 110.800 13.000 110.900 13.100 110.900 13.000 V 10.100 C 110.900 10.045 110.855 10.000 110.800 10.000 H 104.800 C 104.745 10.000 104.700 10.045 104.700 10.100 V 13.000 C 104.700 13.100 104.800 13.000 104.700 13.000 H 98.900 C 98.800 13.000 98.900 13.100 98.900 13.000 V 10.100 C 98.900 10.045 98.855 10.000 98.800 10.000 H 92.800 C 92.745 10.000 92.700 10.045 92.700 10.100 V 13.000 C 92.700 13.100 92.800 13.000 92.700 13.000 H 86.900 C 86.800 13.000 86.900 13.100 86.900 13.000 V 10.100 C 86.900 10.045 86.855 10.000 86.800 10.000 H 80.800 C 80.745 10.000 80.700 10.045 80.700 10.100 V 13.000 C 80.700 13.100 80.800 13.000 80.700 13.000 H 70.800 C 70.745 13.000 70.700 13.045 70.700 13.100 V 21.500 C 70.700 21.600 70.800 21.500 70.700 21.500 H 67.800 C 67.745 21.500 67.700 21.545 67.700 21.600 V 27.600 C 67.700 27.655 67.745 27.700 67.800 27.700 H 70.700 C 70.800 27.700 70.700 27.600 70.700 27.700 V 33.500 C 70.700 33.600 70.800 33.500 70.700 33.500 H 67.800 C 67.745 33.500 67.700 33.545 67.700 33.600 V 39.600 C 67.700 39.655 67.745 39.700 67.800 39.700 H 70.700 C 70.800 39.700 70.700 39.600 70.700 39.700 V 48.100 C 70.700 48.155 70.745 48.200 70.800 48.200" stroke="rgb(0,0,0)" stroke-width="0.20"/>
</g>
</svg>